COMMENT 
COMMENT *********************************************************************
COMMENT *								    *
COMMENT *	Copyright (c) 1990 by Jeff S. Young.  All rights reserved   *
COMMENT *	under the copyright laws of the United States.		    *
COMMENT *								    *
COMMENT *********************************************************************
COMMENT 
STARTFONT 2.1
FONT xmahjongg
SIZE 64 72 72
FONTBOUNDINGBOX 64 64 0 63
STARTPROPERTIES 3
FONT_ASCENT 0
FONT_DESCENT 64
DEFAULT_CHAR 32
ENDPROPERTIES
CHARS 128
STARTCHAR H00
ENCODING 0
SWIDTH 64 0
DWIDTH 64 0
BBX 64 64 0 -64
BITMAP
FFFFFFFFFFFFFFFF
8000000000000001
8000000000000001
8000000000000001
8FFFFFFFFFFFFFE1
8FFFFFFFFFFFFFE1
8C00000000000061
8C00000000000061
8C00000000000061
8C00000000000061
8C00000000000061
8C00000000000061
8C00000000000061
8C000001FC000061
8C00001FFF000061
8C00007E0CC00061
8C00007806200061
8C0001F801180061
8C0003F001880061
8C0007E000800061
8C0007C000C00061
8C000FC000E00061
8C000F8000600061
8C001F8000700061
8C001F0000700061
8C001F0000380061
8C001E0000380061
8C003C00003C0061
8C003C00003C0061
8C003C00003C0061
8C003800003C0061
8C003800003C0061
8C003800003C0061
8C003800003C0061
8C003000007C0061
8C003000007C0061
8C00300000FC0061
8C00100000FC0061
8C00180001FC0061
8C00180001F80061
8C00180001F80061
8C000C0003F00061
8C00040007F00061
8C0004000FF00061
8C0002000FE00061
8C0002001FE00061
8C0021003FC00061
8C0071C0FF800061
8C001C7FFF000061
8C0007FFFC000061
8C0001FFF8000061
8C00000FF0000061
8C00000000000061
8C00000000000061
8C00000000000061
8C00000000000061
8C00000000000061
8C00000000000061
8FFFFFFFFFFFFFE1
8FFFFFFFFFFFFFE1
8000000000000001
8000000000000001
8000000000000001
FFFFFFFFFFFFFFFF
ENDCHAR
STARTCHAR H01
ENCODING 1
SWIDTH 64 0
DWIDTH 64 0
BBX 64 64 0 -64
BITMAP
FFFFFFFFFFFFFFFF
8000000000000001
8000000000000001
8000000000000001
8FFFFFFFFFFFFFE1
8FFFFFFFFFFFFFE1
8C00000000000061
8C00000000000061
8C00000000000061
8C00000000000061
8C00000000000061
8C00000000000061
8C00000000000061
8C00000000000061
8C0000000E000061
8C0000003C000061
8C0000007C000061
8C000000FC000061
8C000001FC000061
8C00000378000061
8C00001E78000061
8C0001F8F0000061
8C000000F0000061
8C000000E0000061
8C000000E0000061
8C000001E0000061
8C000001C0000061
8C000001C0000061
8C000001C0000061
8C000003C0000061
8C00000380000061
8C00000380000061
8C00000380000061
8C00000300000061
8C00000700000061
8C00000700000061
8C00000700000061
8C00000600000061
8C00000E00000061
8C00000E00000061
8C00000E00000061
8C00001C00000061
8C00001C00000061
8C00001C00000061
8C00001C00000061
8C00003C00000061
8C00003C00000061
8C00003C03000061
8C00007806000061
8C000FFFFC000061
8C003FFFF8000061
8C00000000000061
8C00000000000061
8C00000000000061
8C00000000000061
8C00000000000061
8C00000000000061
8C00000000000061
8FFFFFFFFFFFFFE1
8FFFFFFFFFFFFFE1
8000000000000001
8000000000000001
8000000000000001
FFFFFFFFFFFFFFFF
ENDCHAR
STARTCHAR H02
ENCODING 2
SWIDTH 64 0
DWIDTH 64 0
BBX 64 64 0 -64
BITMAP
FFFFFFFFFFFFFFFF
8000000000000001
8000000000000001
8000000000000001
8FFFFFFFFFFFFFE1
8FFFFFFFFFFFFFE1
8C00000000000061
8C00000000000061
8C00000000000061
8C00000000000061
8C00000000000061
8C00000000000061
8C00000000000061
8C00000000000061
8C00000FE0000061
8C0000383C000061
8C0000701E000061
8C0000E007000061
8C0001E003800061
8C0003C003C00061
8C0007C001E00061
8C00078001E00061
8C00078001F00061
8C00000001F00061
8C00000001F00061
8C00000001F00061
8C00000001F00061
8C00000001F00061
8C00000001E00061
8C00000001C00061
8C00000007C00061
8C00000007800061
8C0000000F000061
8C0000001E000061
8C00000038000061
8C000000E0000061
8C00000300000061
8C00000400000061
8C00003800000061
8C00006000000061
8C0001C000000061
8C00038000080061
8C000F00000C0061
8C001E00000C0061
8C003E00001C0061
8C003C00007E0061
8C00787FFFFE0061
8C007F87FFFC0061
8C007C001FF00061
8C00000000000061
8C00000000000061
8C00000000000061
8C00000000000061
8C00000000000061
8C00000000000061
8C00000000000061
8C00000000000061
8C00000000000061
8FFFFFFFFFFFFFE1
8FFFFFFFFFFFFFE1
8000000000000001
8000000000000001
8000000000000001
FFFFFFFFFFFFFFFF
ENDCHAR
STARTCHAR H03
ENCODING 3
SWIDTH 64 0
DWIDTH 64 0
BBX 64 64 0 -64
BITMAP
FFFFFFFFFFFFFFFF
8000000000000001
8000000000000001
8000000000000001
8FFFFFFFFFFFFFE1
8FFFFFFFFFFFFFE1
8C00000000000061
8C00000000000061
8C00000000000061
8C00000000000061
8C00000000000061
8C00000000000061
8C000001F0000061
8C000007E8000061
8C00001F06000061
8C00003E03000061
8C0000FE03800061
8C0000FC03800061
8C00007801C00061
8C00001001C00061
8C00000001C00061
8C00000001C00061
8C00000001C00061
8C00000001C00061
8C00000001800061
8C00000003000061
8C00000006000061
8C00000008000061
8C00000030000061
8C00001FF8000061
8C00001FD8000061
8C00003F1C000061
8C00003C0E000061
8C00001807000061
8C00000003C00061
8C00000003C00061
8C00000001E00061
8C00000000E00061
8C00000000F00061
8C00000000F00061
8C00000000F00061
8C00000000F00061
8C007C0000F00061
8C007E0000E00061
8C007F0001C00061
8C001F8003C00061
8C001FC003800061
8C0007E00F000061
8C0001F00F000061
8C00007C78000061
8C000007C0000061
8C00000000000061
8C00000000000061
8C00000000000061
8C00000000000061
8C00000000000061
8C00000000000061
8C00000000000061
8FFFFFFFFFFFFFE1
8FFFFFFFFFFFFFE1
8000000000000001
8000000000000001
8000000000000001
FFFFFFFFFFFFFFFF
ENDCHAR
STARTCHAR H04
ENCODING 4
SWIDTH 64 0
DWIDTH 64 0
BBX 64 64 0 -64
BITMAP
FFFFFFFFFFFFFFFF
8000000000000001
8000000000000001
8000000000000001
8FFFFFFFFFFFFFE1
8FFFFFFFFFFFFFE1
8C00000000000061
8C00000000000061
8C00000000000061
8C00000000000061
8C00000000000061
8C00000000000061
8C00000000000061
8C00000000600061
8C00000000E00061
8C00000001E00061
8C00000003E00061
8C00000007C00061
8C00000009C00061
8C00000019C00061
8C00000021C00061
8C00000041C00061
8C00000083800061
8C00000303800061
8C00000203800061
8C00000C03000061
8C00003003000061
8C0001E007000061
8C00078007000061
8C007F0007000061
8C007C0006060061
8C007C000E3E0061
8C003F001FFE0061
8C001FFFFFFC0061
8C0001FFDC780061
8C0000001C380061
8C0000001C000061
8C00000038000061
8C00000038000061
8C00000030000061
8C00000070000061
8C000000F0000061
8C000001E0000061
8C000001E0000061
8C000003E0000061
8C000003C0000061
8C000007C0000061
8C000007C0000061
8C00000FE0000061
8C00001FE0000061
8C00000000000061
8C00000000000061
8C00000000000061
8C00000000000061
8C00000000000061
8C00000000000061
8C00000000000061
8C00000000000061
8FFFFFFFFFFFFFE1
8FFFFFFFFFFFFFE1
8000000000000001
8000000000000001
8000000000000001
FFFFFFFFFFFFFFFF
ENDCHAR
STARTCHAR H05
ENCODING 5
SWIDTH 64 0
DWIDTH 64 0
BBX 64 64 0 -64
BITMAP
FFFFFFFFFFFFFFFF
8000000000000001
8000000000000001
8000000000000001
8FFFFFFFFFFFFFE1
8FFFFFFFFFFFFFE1
8C00000000000061
8C00000000000061
8C00000000000061
8C00000000000061
8C00000000000061
8C00000000000061
8C00000000000061
8C00000000000061
8C00000000000061
8C00000000200061
8C0000F800E00061
8C0000FE01E00061
8C000063FFE00061
8C0000701FC00061
8C00007000000061
8C00007000000061
8C00003000000061
8C00003000000061
8C00007000000061
8C00007000000061
8C00007000000061
8C00007000000061
8C0000E000000061
8C0000E000000061
8C0001C000000061
8C0001DFE0000061
8C0003E03C000061
8C0000800F000061
8C00000007800061
8C00000003800061
8C00000003C00061
8C00000001C00061
8C00000001E00061
8C00000000E00061
8C00002000E00061
8C00006000E00061
8C0000E000E00061
8C0007C000E00061
8C0003E001C00061
8C0000E001800061
8C0000F003000061
8C00003002000061
8C0000180C000061
8C000007F0000061
8C00000000000061
8C00000000000061
8C00000000000061
8C00000000000061
8C00000000000061
8C00000000000061
8C00000000000061
8C00000000000061
8FFFFFFFFFFFFFE1
8FFFFFFFFFFFFFE1
8000000000000001
8000000000000001
8000000000000001
FFFFFFFFFFFFFFFF
ENDCHAR
STARTCHAR H06
ENCODING 6
SWIDTH 64 0
DWIDTH 64 0
BBX 64 64 0 -64
BITMAP
FFFFFFFFFFFFFFFF
8000000000000001
8000000000000001
8000000000000001
8FFFFFFFFFFFFFE1
8FFFFFFFFFFFFFE1
8C00000000000061
8C00000000000061
8C00000000000061
8C00000000000061
8C00000000000061
8C00000000000061
8C00000000000061
8C00000000000061
8C00000038000061
8C000000FC000061
8C000003FC000061
8C000007FE000061
8C00000FC0000061
8C00001E00000061
8C00003C00000061
8C00007000000061
8C0000C000000061
8C00018000000061
8C00030000000061
8C00020000000061
8C00040000000061
8C00080000000061
8C00080000000061
8C00180000000061
8C00180000000061
8C00100000000061
8C00300000000061
8C00300000000061
8C007007E0000061
8C00701FF0000061
8C0070607C000061
8C0071001E000061
8C0072000F000061
8C0074000F800061
8C007C0007800061
8C00780007800061
8C003C0007800061
8C00380007800061
8C003C0007800061
8C001E0007800061
8C001E0007000061
8C000F0007000061
8C0007800E000061
8C0003C00C000061
8C0001F03C000061
8C0000FFF0000061
8C00000F80000061
8C00000000000061
8C00000000000061
8C00000000000061
8C00000000000061
8C00000000000061
8FFFFFFFFFFFFFE1
8FFFFFFFFFFFFFE1
8000000000000001
8000000000000001
8000000000000001
FFFFFFFFFFFFFFFF
ENDCHAR
STARTCHAR H07
ENCODING 7
SWIDTH 64 0
DWIDTH 64 0
BBX 64 64 0 -64
BITMAP
FFFFFFFFFFFFFFFF
8000000000000001
8000000000000001
8000000000000001
8FFFFFFFFFFFFFE1
8FFFFFFFFFFFFFE1
8C00000000000061
8C00000000000061
8C00000000000061
8C00000000000061
8C00000000000061
8C00000000000061
8C00000000000061
8C00000000000061
8C00000000000061
8C00000000400061
8C00030000C00061
8C00078001E00061
8C000FE007E00061
8C001FFFFFC00061
8C003E0001800061
8C003C0003000061
8C00000002000061
8C00000006000061
8C0000000C000061
8C00000008000061
8C00000010000061
8C00000010000061
8C00000020000061
8C00000020000061
8C00000040000061
8C000000C0000061
8C00000180000061
8C00000180000061
8C00000380000061
8C00000700000061
8C00000F00000061
8C00000E00000061
8C00001E00000061
8C00001C00000061
8C00003C00000061
8C00003C00000061
8C00007C00000061
8C00007800000061
8C00007800000061
8C0000F800000061
8C0000F800000061
8C0000F800000061
8C0000F800000061
8C00007800000061
8C00000000000061
8C00000000000061
8C00000000000061
8C00000000000061
8C00000000000061
8C00000000000061
8C00000000000061
8C00000000000061
8FFFFFFFFFFFFFE1
8FFFFFFFFFFFFFE1
8000000000000001
8000000000000001
8000000000000001
FFFFFFFFFFFFFFFF
ENDCHAR
STARTCHAR H08
ENCODING 8
SWIDTH 64 0
DWIDTH 64 0
BBX 64 64 0 -64
BITMAP
FFFFFFFFFFFFFFFF
8000000000000001
8000000000000001
8000000000000001
8FFFFFFFFFFFFFE1
8FFFFFFFFFFFFFE1
8C00000000000061
8C00000000000061
8C00000000000061
8C00000000000061
8C00000000000061
8C00000000000061
8C00000000000061
8C00000000000061
8C000000F8000061
8C000003C7000061
8C00000F03800061
8C00001E01C00061
8C00001C00E00061
8C00003C00E00061
8C00003800700061
8C00007800700061
8C00007800700061
8C00007800700061
8C00007800700061
8C00007800600061
8C00003800C00061
8C00001801C00061
8C00001C01800061
8C00000E03000061
8C000003CE000061
8C00001FF8000061
8C00007C10000061
8C0001F00C000061
8C0001E006000061
8C0003C007000061
8C00078003800061
8C00078003800061
8C00070003C00061
8C000F0003C00061
8C000F0003C00061
8C000F0003C00061
8C000F0003C00061
8C000F0007C00061
8C00070007C00061
8C00078007800061
8C0003800F800061
8C0001C01F000061
8C0001E07C000061
8C0000F0F8000061
8C00003FC0000061
8C00000000000061
8C00000000000061
8C00000000000061
8C00000000000061
8C00000000000061
8C00000000000061
8C00000000000061
8FFFFFFFFFFFFFE1
8FFFFFFFFFFFFFE1
8000000000000001
8000000000000001
8000000000000001
FFFFFFFFFFFFFFFF
ENDCHAR
STARTCHAR H09
ENCODING 9
SWIDTH 64 0
DWIDTH 64 0
BBX 64 64 0 -64
BITMAP
FFFFFFFFFFFFFFFF
8000000000000001
8000000000000001
8000000000000001
8FFFFFFFFFFFFFE1
8FFFFFFFFFFFFFE1
8C00000000000061
8C00000000000061
8C00000000000061
8C00000000000061
8C00000000000061
8C00000000000061
8C00000FFC000061
8C00001FFE000061
8C0000603F800061
8C0000C01FC00061
8C00018007E00061
8C00038003E00061
8C00038001F00061
8C00078001F00061
8C00070000F00061
8C00070000F80061
8C00078000780061
8C00078000780061
8C00078000380061
8C00078000B80061
8C0007C000980061
8C0003E001180061
8C0001F002180061
8C0001FC0C180061
8C0000FFF8180061
8C00003FF0100061
8C000007C0300061
8C00000000300061
8C00000000600061
8C00000000600061
8C00000000C00061
8C00000000800061
8C00000001000061
8C00000003000061
8C00000002000061
8C0000000E000061
8C0000001C000061
8C00000078000061
8C000000F0000061
8C000003E0000061
8C000007C0000061
8C00001F80000061
8C00007F00000061
8C0000FE00000061
8C0001FC00000061
8C00000000000061
8C00000000000061
8C00000000000061
8C00000000000061
8C00000000000061
8C00000000000061
8C00000000000061
8FFFFFFFFFFFFFE1
8FFFFFFFFFFFFFE1
8000000000000001
8000000000000001
8000000000000001
FFFFFFFFFFFFFFFF
ENDCHAR
STARTCHAR H0a
ENCODING 10
SWIDTH 64 0
DWIDTH 64 0
BBX 64 64 0 -64
BITMAP
FFFFFFFFFFFFFFFF
8000000000000001
8000000000000001
8000000000000001
8000000000000001
8000000000000001
8000000000000001
8000000000000001
8000000000000001
8000000000000001
8000000000000001
8000000000000001
8000000000000001
8000000000000001
8000000000000001
8000000000000001
8000000000000001
8000000000000001
8000000000000001
8000000000000001
8000000000000001
8000000000000001
8000000000000001
8000000000000001
8000000000000001
8000000000000001
8000000000000001
8000000000000001
8000000000000001
8000000000000001
8000000000000001
8000000000000001
8000000000000001
8000000000000001
8000000000000001
8000000000000001
8000000000000001
8000000000000001
8000000000000001
8000000000000001
8000000000000001
8000000000000001
8000000000000001
8000000000000001
8000000000000001
8000000000000001
8000000000000001
8000000000000001
8000000000000001
8000000000000001
8000000000000001
8000000000000001
8000000000000001
8000000000000001
8000000000000001
8000000000000001
8000000000000001
8000000000000001
8000000000000001
8000000000000001
8000000000000001
8000000000000001
8000000000000001
FFFFFFFFFFFFFFFF
ENDCHAR
STARTCHAR H0b
ENCODING 11
SWIDTH 64 0
DWIDTH 64 0
BBX 64 64 0 -64
BITMAP
FFFFFFFFFFFFFFFF
8000000000000001
8000000000000001
8000000000000001
8000000000000001
8000000000000001
8000000000000001
8000000000000001
8000000000000001
8000000000000001
8000000000000001
8000000000000001
8000000000000001
8000000000000001
8000000000000001
8000000000000001
8000000000000001
8000000000000001
8000000000000001
8000000000000001
8000000000000001
8000000000000001
8000000000000001
8000000000000001
8000000000000001
8000000000000001
8000000000000001
8000000000000001
8000000000000001
8000000000000001
8000000000000001
8000000000000001
8000000000000001
8000000000000001
8000000000000001
8000000000000001
8000000000000001
8000000000000001
8000000000000001
8000000000000001
8000000000000001
8000000000000001
8000000000000001
8000000000000001
8000000000000001
8000000000000001
8000000000000001
8000000000000001
8000000000000001
8000000000000001
8000000000000001
8000000000000001
8000000000000001
8000000000000001
8000000000000001
8000000000000001
8000000000000001
8000000000000001
8000000000000001
8000000000000001
8000000000000001
8000000000000001
8000000000000001
FFFFFFFFFFFFFFFF
ENDCHAR
STARTCHAR H0c
ENCODING 12
SWIDTH 64 0
DWIDTH 64 0
BBX 64 64 0 -64
BITMAP
FFFFFFFFFFFFFFFF
8000000000000001
8000000000000001
8000000000000001
8000000000000001
8000000000000001
8000000000000001
8000000000000001
8000000000000001
8000000000000001
8000000000000001
8000000000000001
8000000000000001
8000000000000001
8000000000000001
8000000000000001
8000000000000001
8000000000000001
8000000000000001
8000000000000001
8000000000000001
8000000000000001
8000000000000001
8000000000000001
8000000000000001
8000000000000001
8000000000000001
8000000000000001
8000000000000001
8000000000000001
8000000000000001
8000000000000001
8000000000000001
8000000000000001
8000000000000001
8000000000000001
8000000000000001
8000000000000001
8000000000000001
8000000000000001
8000000000000001
8000000000000001
8000000000000001
8000000000000001
8000000000000001
8000000000000001
8000000000000001
8000000000000001
8000000000000001
8000000000000001
8000000000000001
8000000000000001
8000000000000001
8000000000000001
8000000000000001
8000000000000001
8000000000000001
8000000000000001
8000000000000001
8000000000000001
8000000000000001
8000000000000001
8000000000000001
FFFFFFFFFFFFFFFF
ENDCHAR
STARTCHAR H0d
ENCODING 13
SWIDTH 64 0
DWIDTH 64 0
BBX 64 64 0 -64
BITMAP
FFFFFFFFFFFFFFFF
8000000000000001
8000000000000001
8000000000000001
8000000000000001
8000000000000001
8000000000000001
8000000000000001
8000000000000001
8000000000000001
8000000000000001
8000000000000001
8000000000000001
8000000000000001
8000000000000001
8000000000000001
8000000000000001
8000000000000001
8000000000000001
8000000000000001
8000000000000001
8000000000000001
8000000000000001
8000000000000001
8000000000000001
8000000000000001
8000000000000001
8000000000000001
8000000000000001
8000000000000001
8000000000000001
8000000000000001
8000000000000001
8000000000000001
8000000000000001
8000000000000001
8000000000000001
8000000000000001
8000000000000001
8000000000000001
8000000000000001
8000000000000001
8000000000000001
8000000000000001
8000000000000001
8000000000000001
8000000000000001
8000000000000001
8000000000000001
8000000000000001
8000000000000001
8000000000000001
8000000000000001
8000000000000001
8000000000000001
8000000000000001
8000000000000001
8000000000000001
8000000000000001
8000000000000001
8000000000000001
8000000000000001
8000000000000001
FFFFFFFFFFFFFFFF
ENDCHAR
STARTCHAR H0e
ENCODING 14
SWIDTH 64 0
DWIDTH 64 0
BBX 64 64 0 -64
BITMAP
FFFFFFFFFFFFFFFF
8000000000000001
8000000000000001
8000000000000001
8000000000000001
8000000000000001
8000000000000001
8000000000000001
8000000000000001
8000000000000001
8000000000000001
8000000000000001
8000000000000001
8000000000000001
8000000000000001
8000000000000001
8000000000000001
8000000000000001
8000000000000001
8000000000000001
8000000000000001
8000000000000001
8000000000000001
8000000000000001
8000000000000001
8000000000000001
8000000000000001
8000000000000001
8002400000000001
8000000000000001
8000000000000001
8000000000000001
8000000000000001
8000000000000001
8000000000000001
8000000000000001
8000000000000001
8000000000000001
8000000000000001
8000000000000001
8000000000000001
8000000000000001
8000000000000001
8000000000000001
8000000000000001
8000000000000001
8000000000000001
8000000000000001
8000000000000001
8000000000000001
8000000000000001
8000000000000001
8000000000000001
8000000000000001
8000000000000001
8000000000000001
8000000000000001
8000000000000001
8000000000000001
8000000000000001
8000000000000001
8000000000000001
8000000000000001
FFFFFFFFFFFFFFFF
ENDCHAR
STARTCHAR H0f
ENCODING 15
SWIDTH 64 0
DWIDTH 64 0
BBX 64 64 0 -64
BITMAP
FFFFFFFFFFFFFFFF
8000000000000001
8000000000000001
8000000000000001
8000000000000001
8000000000000001
8000000000000001
8000000000000001
8000000000000001
8000000000000001
8000000000000001
8000000000000001
8000000000000001
8000000000000001
8000000000000001
8000000000000001
8000000000000001
8000000000000001
8000000000000001
8000000000000001
8000000000000001
8000000000000001
8000000000000001
8000000000000001
8000000000000001
8000000000000001
8000000000000001
8000000000000001
8000000000000001
8000000000000001
8000000000000001
8000000000000001
8000000000000001
8000000000000001
8000000000000001
8000000000000001
8000000000000001
8000000000000001
8000000000000001
8000000000000001
8000000000000001
8000000000000001
8000000000000001
8000000000000001
8000000000000001
8000000000000001
8000000000000001
8000000000000001
8000000000000001
8000000000000001
8000000000000001
8000000000000001
8000000000000001
8000000000000001
8000000000000001
8000000000000001
8000000000000001
8000000000000001
8000000000000001
8000000000000001
8000000000000001
8000000000000001
8000000000000001
FFFFFFFFFFFFFFFF
ENDCHAR
STARTCHAR H10
ENCODING 16
SWIDTH 64 0
DWIDTH 64 0
BBX 64 64 0 -64
BITMAP
FFFFFFFFFFFFFFFF
8000000000000001
8000000000000001
8000000000000001
8000000000000001
8000000000000001
8000000000000001
8000000000000001
8000000000000001
8000000000000001
8000000000000001
8000000000000001
8000000000000001
8000000000000001
8000000000000001
8000000000000001
8000000000000001
8000000000000001
8000000000000001
8000000000000001
8000000000000001
8000000000000001
8000000000000001
8000000000000001
8000000000000001
8000000000000001
8000000000000001
8000000000000001
8000000000000001
8000000000000001
8000000000000001
8000000000000001
8000000000000001
8000000000000001
8000000000000001
8000000000000001
8000000000000001
8000000000000001
8000000000000001
8000000000000001
8000000000000001
8000000000000001
8000000000000001
8000000000000001
8000000000000001
8000000000000001
8000000000000001
8000000000000001
8000000000000001
8000000000000001
8000000000000001
8000000000000001
8000000000000001
8000000000000001
8000000000000001
8000000000000001
8000000000000001
8000000000000001
8000000000000001
8000000000000001
8000000000000001
8000000000000001
8000000000000001
FFFFFFFFFFFFFFFF
ENDCHAR
STARTCHAR H11
ENCODING 17
SWIDTH 64 0
DWIDTH 64 0
BBX 64 64 0 -64
BITMAP
FFFFFFFFFFFFFFFF
8000000000000001
8000000000000001
8000000000000001
8000000000000001
8000000000000301
8000000000000701
8000000000000F01
8000000000000301
8000000000000301
8000000000000301
8000000000000301
8000000000000301
8000000000000301
8000000000000001
8000780000000001
8000EC0000000001
8039820000000001
800F670000000001
8007010000000001
8001830000000001
8007D28000000001
801FFBE000000001
80003F7000000001
80003EFC00000001
80003C0E00000001
800027C180000001
80002C0CC0000001
80001B82E0000001
80001BE1D0000001
80001BA0F8000001
8000159CB8000001
800014CE7C000001
80001AF11E000001
80000A7CCF000001
8000053D77000001
800003E7DDC00001
800001F9C5C00001
800000FE00F80001
8000003FC09C0001
80000004BDFF0001
80000002BA7D6001
80000001183FF001
80000003301FE801
800000062006FE01
8000000460C3FC01
8000000C47F1BC01
80000038FFF04E01
8000006BFE300401
800001FFC0000001
80000FFF80000001
80003E5000000001
8001F80000000001
80EFE00000000001
803E000000000001
8000000000000001
8000000000000001
8000000000000001
8000000000000001
8000000000000001
8000000000000001
8000000000000001
8000000000000001
FFFFFFFFFFFFFFFF
ENDCHAR
STARTCHAR H12
ENCODING 18
SWIDTH 64 0
DWIDTH 64 0
BBX 64 64 0 -64
BITMAP
FFFFFFFFFFFFFFFF
8000000000000001
8000000000000001
8000000000000001
8000000000000001
8000000000000781
8000000000000CC1
80000000000000C1
80000000000000C1
80000007C0000181
80000006C0000301
8000000280000601
8000000280000C41
8000000280000FC1
8000000280000001
8000000280000001
8000000280000001
8000000280000001
80000007C0000001
80000007C0000001
8000000280000001
8000000280000001
8000000280000001
8000000280000001
8000000280000001
8000000280000001
8000000280000001
80000006C0000001
80000007C0000001
8000000000000001
8000000000000001
8000000000000001
8000000000000001
8000000000000001
80000007C0000001
80000006C0000001
8000000280000001
8000000280000001
8000000280000001
8000000280000001
8000000280000001
8000000280000001
8000000280000001
80000007C0000001
80000007C0000001
8000000280000001
8000000280000001
8000000280000001
8000000280000001
8000000280000001
8000000280000001
8000000280000001
8000000280000001
80000007C0000001
80000007C0000001
8000000000000001
8000000000000001
8000000000000001
8000000000000001
8000000000000001
8000000000000001
8000000000000001
8000000000000001
FFFFFFFFFFFFFFFF
ENDCHAR
STARTCHAR H13
ENCODING 19
SWIDTH 64 0
DWIDTH 64 0
BBX 64 64 0 -64
BITMAP
FFFFFFFFFFFFFFFF
8000000000000001
8000000000000001
8000000000000001
8000000000000001
8000000000000F81
80000000000018C1
80000000000018C1
80000000000000C1
80000007C0000781
80000006C00001C1
80000002800000C1
80000002800018C1
80000002800018C1
8000000280000F81
8000000280000001
8000000280000001
8000000280000001
80000007C0000001
80000007C0000001
8000000280000001
8000000280000001
8000000280000001
8000000280000001
8000000280000001
8000000280000001
8000000280000001
80000006C0000001
80000007C0000001
8000000000000001
8000000000000001
8000000000000001
8000000000000001
80000F8003E00001
80000D8003600001
8000050001400001
8000050001400001
8000050001400001
8000050001400001
8000050001400001
8000050001400001
8000050001400001
8000050001400001
80000F8003E00001
80000F8003E00001
8000050001400001
8000050001400001
8000050001400001
8000050001400001
8000050001400001
8000050001400001
8000050001400001
8000050001400001
80000D8003600001
80000F8003E00001
8000000000000001
8000000000000001
8000000000000001
8000000000000001
8000000000000001
8000000000000001
8000000000000001
8000000000000001
FFFFFFFFFFFFFFFF
ENDCHAR
STARTCHAR H14
ENCODING 20
SWIDTH 64 0
DWIDTH 64 0
BBX 64 64 0 -64
BITMAP
FFFFFFFFFFFFFFFF
8000000000000001
8000000000000001
8000000000000001
8000000000000001
8000000000000001
8000000000000001
80000001C0000001
80000003C0000001
80000F86C3E00001
80000D8CC3600001
80000518C1400001
8000051FE1400001
80000500C1400001
80000500C1400001
8000050001400001
8000050001400001
8000050001400001
80000F8003E00001
80000F8003E00001
8000050001400001
8000050001400001
8000050001400001
8000050001400001
8000050001400001
8000050001400001
8000050001400001
80000D8003600001
80000F8003E00001
8000000000000001
8000000000000001
8000000000000001
8000000000000001
80000F8003E00001
80000D8003600001
8000050001400001
8000050001400001
8000050001400001
8000050001400001
8000050001400001
8000050001400001
8000050001400001
8000050001400001
80000F8003E00001
80000F8003E00001
8000050001400001
8000050001400001
8000050001400001
8000050001400001
8000050001400001
8000050001400001
8000050001400001
8000050001400001
80000D8003600001
80000F8003E00001
8000000000000001
8000000000000001
8000000000000001
8000000000000001
8000000000000001
8000000000000001
8000000000000001
8000000000000001
FFFFFFFFFFFFFFFF
ENDCHAR
STARTCHAR H15
ENCODING 21
SWIDTH 64 0
DWIDTH 64 0
BBX 64 64 0 -64
BITMAP
FFFFFFFFFFFFFFFF
8000000000000001
8000000000000001
8000000000000001
8000000000000001
8000000FE0000001
8000000C00000001
8000000C00000001
8000000FC0000001
80007C00607C0001
80006C00606C0001
8000280060280001
8000280C60280001
8000280C60280001
80002807C0280001
8000280000280001
8000280000280001
8000280000280001
80007C00007C0001
80007C00007C0001
8000280000280001
8000280000280001
80002807C0280001
80002806C0280001
8000280280280001
8000280280280001
8000280280280001
80006C02806C0001
80007C02807C0001
8000000280000001
8000000280000001
80000007C0000001
80000007C0000001
8000000280000001
8000000280000001
80007C02807C0001
80006C02806C0001
8000280280280001
8000280280280001
8000280280280001
80002806C0280001
80002807C0280001
8000280000280001
8000280000280001
80007C00007C0001
80007C00007C0001
8000280000280001
8000280000280001
8000280000280001
8000280000280001
8000280000280001
8000280000280001
8000280000280001
80006C00006C0001
80007C00007C0001
8000000000000001
8000000000000001
8000000000000001
8000000000000001
8000000000000001
8000000000000001
8000000000000001
8000000000000001
FFFFFFFFFFFFFFFF
ENDCHAR
STARTCHAR H16
ENCODING 22
SWIDTH 64 0
DWIDTH 64 0
BBX 64 64 0 -64
BITMAP
FFFFFFFFFFFFFFFF
8000000000000001
8000000000000001
8000000000000001
8000000000000001
8000000000000F81
80000000000018C1
8000000000001801
8000000000001801
80007C07C07C1F81
80006C06C06C18C1
80002802802818C1
80002802802818C1
80002802802818C1
8000280280280F81
8000280280280001
8000280280280001
8000280280280001
80007C07C07C0001
80007C07C07C0001
8000280280280001
8000280280280001
8000280280280001
8000280280280001
8000280280280001
8000280280280001
8000280280280001
80006C06C06C0001
80007C07C07C0001
8000000000000001
8000000000000001
8000000000000001
8000000000000001
8000000000000001
8000000000000001
80007C07C07C0001
80006C06C06C0001
8000280280280001
8000280280280001
8000280280280001
8000280280280001
8000280280280001
8000280280280001
8000280280280001
80007C07C07C0001
80007C07C07C0001
8000280280280001
8000280280280001
8000280280280001
8000280280280001
8000280280280001
8000280280280001
8000280280280001
80006C06C06C0001
80007C07C07C0001
8000000000000001
8000000000000001
8000000000000001
8000000000000001
8000000000000001
8000000000000001
8000000000000001
8000000000000001
FFFFFFFFFFFFFFFF
ENDCHAR
STARTCHAR H17
ENCODING 23
SWIDTH 64 0
DWIDTH 64 0
BBX 64 64 0 -64
BITMAP
FFFFFFFFFFFFFFFF
8000000000000001
8000000000000001
8000000000000001
8000000000000001
8000000000001FC1
80000000000010C1
80000007C00010C1
80000006C0000181
8000000280000181
8000000280000301
8000000280000301
8000000280000601
80000007C0000601
80000007C0000601
8000000280000001
8000000280000001
8000000280000001
8000000280000001
8000000280000001
80000006C0000001
80000007C0000001
8000000000000001
8000000000000001
8000F807C03E0001
8000D806C0360001
8000500280140001
8000500280140001
8000500280140001
8000500280140001
8000500280140001
8000F807C03E0001
8000F807C03E0001
8000500280140001
8000500280140001
8000500280140001
8000500280140001
8000500280140001
8000D806C0360001
8000F807C03E0001
8000000000000001
8000000000000001
8000F807C03E0001
8000D806C0360001
8000500280140001
8000500280140001
8000500280140001
8000500280140001
8000500280140001
8000F807C03E0001
8000F807C03E0001
8000500280140001
8000500280140001
8000500280140001
8000500280140001
8000500280140001
8000D806C0360001
8000F807C03E0001
8000000000000001
8000000000000001
8000000000000001
8000000000000001
8000000000000001
FFFFFFFFFFFFFFFF
ENDCHAR
STARTCHAR H18
ENCODING 24
SWIDTH 64 0
DWIDTH 64 0
BBX 64 64 0 -64
BITMAP
FFFFFFFFFFFFFFFF
8000000000000001
8000000000000001
8000000000000001
8000000000000001
8000000000000001
8000000000000001
8000000000000001
8000000000000001
8000000000000001
800F8C000063E001
800D9C0000736001
80052C0000694001
8005760000DD4001
80057B0001BD4001
80050D8003614001
800506E00EC14001
800503E00F814001
800501F01F014001
800F81D83703E001
800F806C6C03E001
80050036D8014001
8005001BB0014001
8005000D60014001
8005001FF0014001
8005000FE0014001
8005000000014001
80050007C0014001
800D800C60036001
800F800C6003E001
8000000C60000001
80000007C0000001
8000000C60000001
8000000C60000001
800F800C6003E001
800D800C60036001
80050007C0014001
8005000000014001
8005000FE0014001
8005001FF0014001
8005000D60014001
8005001BB0014001
80050036D8014001
800F806C6C03E001
800F81D83703E001
800501F01F014001
800503E00F814001
800506E00EC14001
80050D8003614001
80057B0001BD4001
8005760000DD4001
80052C0000694001
800D9C0000736001
800F8C000063E001
8000000000000001
8000000000000001
8000000000000001
8000000000000001
8000000000000001
8000000000000001
8000000000000001
8000000000000001
8000000000000001
FFFFFFFFFFFFFFFF
ENDCHAR
STARTCHAR H19
ENCODING 25
SWIDTH 64 0
DWIDTH 64 0
BBX 64 64 0 -64
BITMAP
FFFFFFFFFFFFFFFF
8000000000000001
8000000000000001
8000000000000001
8000000000000001
8000000000000F81
80000000000018C1
8000F807C03E18C1
8000D806C03618C1
80005002801418C1
8000500280140FC1
80005002801400C1
80005002801400C1
8000F807C03E18C1
8000F807C03E0F81
8000500280140001
8000500280140001
8000500280140001
8000500280140001
8000500280140001
8000D806C0360001
8000F807C03E0001
8000000000000001
8000000000000001
8000F807C03E0001
8000D806C0360001
8000500280140001
8000500280140001
8000500280140001
8000500280140001
8000500280140001
8000F807C03E0001
8000F807C03E0001
8000500280140001
8000500280140001
8000500280140001
8000500280140001
8000500280140001
8000D806C0360001
8000F807C03E0001
8000000000000001
8000000000000001
8000F807C03E0001
8000D806C0360001
8000500280140001
8000500280140001
8000500280140001
8000500280140001
8000500280140001
8000F807C03E0001
8000F807C03E0001
8000500280140001
8000500280140001
8000500280140001
8000500280140001
8000500280140001
8000D806C0360001
8000F807C03E0001
8000000000000001
8000000000000001
8000000000000001
8000000000000001
8000000000000001
FFFFFFFFFFFFFFFF
ENDCHAR
STARTCHAR H1a
ENCODING 26
SWIDTH 64 0
DWIDTH 64 0
BBX 64 64 0 -64
BITMAP
FFFFFFFFFFFFFFFF
8000000000000001
8000000000000001
8000000000000001
8000000000000001
8000000000000001
8000000000000001
8000000000000001
8000000000000001
8000000000000001
8000000000000001
8000000000000001
8000000000000001
8000000000000001
8000000000000001
8000000000000001
8000000000000001
8000000000000001
8000000000000001
8000000000000001
8000000000000001
8000000000000001
8000000000000001
8000000000000001
8000000000000001
8000000000000001
8000000000000001
8000000000000001
8000000000000001
8000000000000001
8000000000000001
8000000000000001
8000000000000001
8000000000000001
8000000000000001
8000000000000001
8000000000000001
8000000000000001
8000000000000001
8000000000000001
8000000000000001
8000000000000001
8000000000000001
8000000000000001
8000000000000001
8000000000000001
8000000000000001
8000000000000001
8000000000000001
8000000000000001
8000000000000001
8000000000000001
8000000000000001
8000000000000001
8000000000000001
8000000000000001
8000000000000001
8000000000000001
8000000000000001
8000000000000001
8000000000000001
8000000000000001
8000000000000001
FFFFFFFFFFFFFFFF
ENDCHAR
STARTCHAR H1b
ENCODING 27
SWIDTH 64 0
DWIDTH 64 0
BBX 64 64 0 -64
BITMAP
FFFFFFFFFFFFFFFF
8000000000000001
8000000000000001
8000000000000001
8000000000000001
8000000000000001
8000000000000001
8000000000000001
8000000000000001
8000000000000001
8000000000000001
8000000000000001
8000000000000001
8000000000000001
8000000000000001
8000000000000001
8000000000000001
8000000000000001
8000000000000001
8000000000000001
8000000000000001
8000000000000001
8000000000000001
8000000000000001
8000000000000001
8000000000000001
8000000000000001
8000000000000001
8000000000000001
8000000000000001
8000000000000001
8000000000000001
8000000000000001
8000000000000001
8000000000000001
8000000000000001
8000000000000001
8000000000000001
8000000000000001
8000000000000001
8000000000000001
8000000000000001
8000000000000001
8000000000000001
8000000000000001
8000000000000001
8000000000000001
8000000000000001
8000000000000001
8000000000000001
8000000000000001
8000000000000001
8000000000000001
8000000000000001
8000000000000001
8000000000000001
8000000000000001
8000000000000001
8000000000000001
8000000000000001
8000000000000001
8000000000000001
8000000000000001
FFFFFFFFFFFFFFFF
ENDCHAR
STARTCHAR H1c
ENCODING 28
SWIDTH 64 0
DWIDTH 64 0
BBX 64 64 0 -64
BITMAP
FFFFFFFFFFFFFFFF
8000000000000001
8000000000000001
8000000000000001
8000000000000001
8000000000000001
8000000000000001
8000000000000001
8000000000000001
8000000000000001
8000000000000001
8000000000000001
8000000000000001
8000000000000001
8000000000000001
8000000000000001
8000000000000001
8000000000000001
8000000000000001
8000000000000001
8000000000000001
8000000000000001
8000000000000001
8000000000000001
8000000000000001
8000000000000001
8000000000000001
8000000000000001
8000000000000001
8000000000000001
8000000000000001
8000000000000001
8000000000000001
8000000000000001
8000000000000001
8000000000000001
8000000000000001
8000000000000001
8000000000000001
8000000000000001
8000000000000001
8000000000000001
8000000000000001
8000000000000001
8000000000000001
8000000000000001
8000000000000001
8000000000000001
8000000000000001
8000000000000001
8000000000000001
8000000000000001
8000000000000001
8000000000000001
8000000000000001
8000000000000001
8000000000000001
8000000000000001
8000000000000001
8000000000000001
8000000000000001
8000000000000001
8000000000000001
FFFFFFFFFFFFFFFF
ENDCHAR
STARTCHAR H1d
ENCODING 29
SWIDTH 64 0
DWIDTH 64 0
BBX 64 64 0 -64
BITMAP
FFFFFFFFFFFFFFFF
8000000000000001
8000000000000001
8000000000000001
8000000000000001
8000000000000001
8000000000000001
8000000000000001
8000000000000001
8000000000000001
8000000000000001
8000000000000001
8000000000000001
8000000000000001
8000000000000001
8000000000000001
8000000000000001
8000000000000001
8000000000000001
8000000000000001
8000000000000001
8000000000000001
8000000000000001
8000000000000001
8000000000000001
8000000000000001
8000000000000001
8000000000000001
8000000000000001
8000000000000001
8000000000000001
8000000000000001
8000000000000001
8000000000000001
8000000000000001
8000000000000001
8000000000000001
8000000000000001
8000000000000001
8000000000000001
8000000000000001
8000000000000001
8000000000000001
8000000000000001
8000000000000001
8000000000000001
8000000000000001
8000000000000001
8000000000000001
8000000000000001
8000000000000001
8000000000000001
8000000000000001
8000000000000001
8000000000000001
8000000000000001
8000000000000001
8000000000000001
8000000000000001
8000000000000001
8000000000000001
8000000000000001
8000000000000001
FFFFFFFFFFFFFFFF
ENDCHAR
STARTCHAR H1e
ENCODING 30
SWIDTH 64 0
DWIDTH 64 0
BBX 64 64 0 -64
BITMAP
FFFFFFFFFFFFFFFF
8000000000000001
8000000000000001
8000000000000001
8000000000000001
8000000000000001
8000000000000001
8000000000000001
8000000000000001
8000000000000001
8000000000000001
8000000000000001
8000000000000001
8000000000000001
8000000000000001
8000000000000001
8000000000000001
8000000000000001
8000000000000001
8000000000000001
8000000000000001
8000000000000001
8000000000000001
8000000000000001
8000000000000001
8000000000000001
8000000000000001
8000000000000001
8000000000000001
8000000000000001
8000000000000001
8000000000000001
8000000000000001
8000000000000001
8000000000000001
8000000000000001
8000000000000001
8000000000000001
8000000000000001
8000000000000001
8000000000000001
8000000000000001
8000000000000001
8000000000000001
8000000000000001
8000000000000001
8000000000000001
8000000000000001
8000000000000001
8000000000000001
8000000000000001
8000000000000001
8000000000000001
8000000000000001
8000000000000001
8000000000000001
8000000000000001
8000000000000001
8000000000000001
8000000000000001
8000000000000001
8000000000000001
8000000000000001
FFFFFFFFFFFFFFFF
ENDCHAR
STARTCHAR H1f
ENCODING 31
SWIDTH 64 0
DWIDTH 64 0
BBX 64 64 0 -64
BITMAP
FFFFFFFFFFFFFFFF
8000000000000001
8000000000000001
8000000000000001
8000000000000001
8000000000000001
8000000000000001
8000000000000001
8000000000000001
8000000000000001
8000000000000001
8000000000000001
8000000000000001
8000000000000001
8000000000000001
8000000000000001
8000000000000001
8000000000000001
8000000000000001
8000000000000001
8000000000000001
8000000000000001
8000000000000001
8000000000000001
8000000000000001
8000000000000001
8000000000000001
8000000000000001
8000000000000001
8000000000000001
8000000000000001
8000000000000001
8000000000000001
8000000000000001
8000000000000001
8000000000000001
8000000000000001
8000000000000001
8000000000000001
8000000000000001
8000000000000001
8000000000000001
8000000000000001
8000000000000001
8000000000000001
8000000000000001
8000000000000001
8000000000000001
8000000000000001
8000000000000001
8000000000000001
8000000000000001
8000000000000001
8000000000000001
8000000000000001
8000000000000001
8000000000000001
8000000000000001
8000000000000001
8000000000000001
8000000000000001
8000000000000001
8000000000000001
FFFFFFFFFFFFFFFF
ENDCHAR
STARTCHAR H20
ENCODING 32
SWIDTH 64 0
DWIDTH 64 0
BBX 64 64 0 -64
BITMAP
FFFFFFFFFFFFFFFF
8000000000000001
8000000000000001
8000000000000001
8000000000000001
8000000000000001
8000000000000001
8000000000000001
8000000000000001
8000000000000001
8000000000000001
8000000000000001
8000000000000001
8000000000000001
8000000000000001
8000000000000001
8000000000000001
8000000000000001
8000000000000001
8000000000000001
8000000000000001
8000000000000001
8000000000000001
8000000000000001
8000000000000001
8000000000000001
8000000000000001
8000000000000001
8000000000000001
8000000000000001
8000000000000001
8000000000000001
8000000000000001
8000000000000001
8000000000000001
8000000000000001
8000000000000001
8000000000000001
8000000000000001
8000000000000001
8000000000000001
8000000000000001
8000000000000001
8000000000000001
8000000000000001
8000000000000001
8000000000000001
8000000000000001
8000000000000001
8000000000000001
8000000000000001
8000000000000001
8000000000000001
8000000000000001
8000000000000001
8000000000000001
8000000000000001
8000000000000001
8000000000000001
8000000000000001
8000000000000001
8000000000000001
8000000000000001
FFFFFFFFFFFFFFFF
ENDCHAR
STARTCHAR H21
ENCODING 33
SWIDTH 64 0
DWIDTH 64 0
BBX 64 64 0 -64
BITMAP
FFFFFFFFFFFFFFFF
8000000000000001
8000000000000001
8000000000000001
8000000000000001
8000000000000301
8000000000000701
8000000000000F01
8000000000000301
8000001FF0000301
800000E00E000301
8000071FF1C00301
800008E10E200301
8000332109980FC1
80004C2108640001
8000982108320001
8001281110290001
8002441110448001
8004821110824001
8005820FE0814001
800AC1301D07A001
801260CFE6049001
8014193839185001
80140E5014B05001
8028049012602801
802805F01F402801
802F0A0820A1E801
8050FA0440AE1401
8050140380501401
8050140440501401
8050140920501401
805FF40AA05FF401
8050161930D01401
805015E44F501401
8050148382501401
8051EB0101AE1401
802E0B0101A1E801
8028050101402801
8028048102402801
80140A4284A05001
8014313459105001
801240CFE6089001
800AC1301906A001
8005020FE0834001
8004821110824001
8002441110448001
8001241110490001
8000982108320001
80004C2108640001
8000332109980001
800008E10E200001
8000071FF1C00001
800000E00E000001
8000001FF0000001
8000000000000001
8000000000000001
8000000000000001
8000000000000001
8000000000000001
8000000000000001
8000000000000001
8000000000000001
8000000000000001
FFFFFFFFFFFFFFFF
ENDCHAR
STARTCHAR H22
ENCODING 34
SWIDTH 64 0
DWIDTH 64 0
BBX 64 64 0 -64
BITMAP
FFFFFFFFFFFFFFFF
8000000000000001
8000000000000001
8000000000000001
8000000000000001
8000000FE0000F81
80000030180018C1
80000040040018C1
80000187C30000C1
8000011831000181
8000022008800301
80000447C4400601
8000048822400C01
8000089012201841
8000092009201FC1
8000092009200001
8000092009200001
8000092009200001
8000092009200001
8000089012200001
8000048822400001
80000447C4400001
8000022008800001
8000011831000001
80000187C3000001
8000004004000001
8000003018000001
8000000FE0000001
8000000000000001
8000000000000001
8000000000000001
8000000000000001
8000000000000001
8000000000000001
8000000000000001
8000000FE0000001
8000003018000001
8000004004000001
80000187C3000001
8000011831000001
8000022008800001
80000447C4400001
8000048822400001
8000089012200001
8000092009200001
8000092009200001
8000092009200001
8000092009200001
8000092009200001
8000089012200001
8000048822400001
80000447C4400001
8000022008800001
8000011831000001
80000187C3000001
8000004004000001
8000003018000001
8000000FE0000001
8000000000000001
8000000000000001
8000000000000001
8000000000000001
8000000000000001
FFFFFFFFFFFFFFFF
ENDCHAR
STARTCHAR H23
ENCODING 35
SWIDTH 64 0
DWIDTH 64 0
BBX 64 64 0 -64
BITMAP
FFFFFFFFFFFFFFFF
8000000000000001
8000000000000001
8000000000000001
8000000000000001
8000000000000F81
8007C000000018C1
80183000000018C1
80600C00000000C1
8087C20000000781
80882200000001C1
81101100000000C1
81238900000018C1
82444480000018C1
8248248000000F81
8248248000000001
8248248000000001
8244448000000001
8123890000000001
8110110000000001
8088220000000001
8087C20000000001
80600C07C0000001
8018301830000001
8007C0600C000001
80000087C2000001
8000008822000001
8000011011000001
8000012389000001
8000024444800001
8000024824800001
8000024824800001
8000024824800001
8000024444800001
8000012389000001
8000011011000001
8000008822000001
80000087C2000001
800000600C000001
800000183007C001
80000007C0183001
8000000000600C01
800000000087C201
8000000000882201
8000000001101101
8000000001238901
8000000002444481
8000000002482481
8000000002482481
8000000002482481
8000000002444481
8000000001238901
8000000001101101
8000000000882201
800000000087C201
8000000000600C01
8000000000183001
800000000007C001
8000000000000001
8000000000000001
8000000000000001
8000000000000001
8000000000000001
FFFFFFFFFFFFFFFF
ENDCHAR
STARTCHAR H24
ENCODING 36
SWIDTH 64 0
DWIDTH 64 0
BBX 64 64 0 -64
BITMAP
FFFFFFFFFFFFFFFF
8000000000000001
8000000000000001
8000000000000001
8000000000000001
8000000000000041
80000000000000C1
8000000000000141
8000000000000241
8000000000000441
8000000000000441
8000F800003E07E1
8003060000C18041
8004010001004041
8008F880023E2001
8011044004411001
8012024004809001
80247120091C4801
8024892009224801
8024890009224801
8024892009224801
80247120091C4801
8012024004809001
8011044004411001
8008F880023E2001
8004010001004001
8003060000C18001
8000F800003E0001
8000000000000001
8000000000000001
8000000000000001
8000000000000001
8000000000000001
8000000000000001
8000000000000001
8000F800003E0001
8003060000C18001
8004010001004001
8008F880023E2001
8011044004411001
8012024004809001
80247120091C4801
8024892009224801
8024892009224801
8024892009224801
80247120091C4801
8012024004809001
8011044004411001
8008F880023E2001
8004010001004001
8003060000C18001
8000F800003E0001
8000000000000001
8000000000000001
8000000000000001
8000000000000001
8000000000000001
8000000000000001
8000000000000001
8000000000000001
8000000000000001
8000000000000001
8000000000000001
FFFFFFFFFFFFFFFF
ENDCHAR
STARTCHAR H25
ENCODING 37
SWIDTH 64 0
DWIDTH 64 0
BBX 64 64 0 -64
BITMAP
FFFFFFFFFFFFFFFF
8000000000000001
8000000000000001
8000000000000001
8000000000000001
8000000000000FC1
8000000000000801
8000000000000801
8000000000000F81
80000000000000C1
80000000000000C1
80000000000000C1
8000F800003E08C1
8003060000C188C1
8004010001004F81
80087080021C2001
80098C8002632001
8011044004411001
8012224004889001
8012524004949001
8012224004889001
8011044004411001
80098C8002632001
80087080021C2001
80040107C1004001
8003061830C18001
8000F820083E0001
8000004384000001
8000004C64000001
8000008822000001
8000009112000001
8000009292000001
8000009112000001
8000008822000001
8000004C64000001
8000004384000001
8000F820083E0001
8003061830C18001
80040107C1004001
80087080021C2001
80098C8002632001
8011044004411001
8012224004889001
8012524004949001
8012224004889001
8011044004411001
80098C8002632001
80087080021C2001
8004010001004001
8003060000C18001
8000F800003E0001
8000000000000001
8000000000000001
8000000000000001
8000000000000001
8000000000000001
8000000000000001
8000000000000001
8000000000000001
8000000000000001
8000000000000001
8000000000000001
8000000000000001
FFFFFFFFFFFFFFFF
ENDCHAR
STARTCHAR H26
ENCODING 38
SWIDTH 64 0
DWIDTH 64 0
BBX 64 64 0 -64
BITMAP
FFFFFFFFFFFFFFFF
8000000000000001
8000000000000001
8000000000000001
8000000000000001
8000000000000F81
80000000000018C1
8000000000001801
8000000000001801
8000000000001F81
80000000000018C1
80001F0000F818C1
80002080010418C1
80004040020218C1
80008E2004710F81
8001111008888001
8001209009048001
8001249009248001
8001209009048001
8001111008888001
80008E2004710001
8000404002020001
8000208001040001
80001F0000F80001
8000000000000001
8000000000000001
8000000000000001
8000000000000001
8000000000000001
8000000000000001
8000000000000001
80001F0000F80001
8000208001040001
8000404002020001
80008E2004710001
8001111008888001
8001209009048001
8001249009248001
8001209009048001
8001111008888001
80008E2004710001
8000404002020001
8000208001040001
80001F0000F80001
8000000000000001
80001F0000F80001
8000208001040001
8000404002020001
80008E2004710001
8001111008888001
8001209009048001
8001249009248001
8001209009048001
8001111008888001
80008E2004710001
8000404002020001
8000208001040001
80001F0000F80001
8000000000000001
8000000000000001
8000000000000001
8000000000000001
8000000000000001
FFFFFFFFFFFFFFFF
ENDCHAR
STARTCHAR H27
ENCODING 39
SWIDTH 64 0
DWIDTH 64 0
BBX 64 64 0 -64
BITMAP
FFFFFFFFFFFFFFFF
8000000000000001
8000000000000001
8000000000000001
8000000000000001
8000F80000001FC1
80010400000010C1
80020200000010C1
8004710000000181
8008888000000181
8009048000000301
80092487C0000301
8009048820000601
8008889010000601
8004712388000601
8002024444000001
8001044824000001
8000F849243E0001
8000004824410001
8000004444808001
80000023891C4001
8000001012222001
8000000822412001
80000007C2492001
8000000002412001
8000000002222001
80000000011C4001
8000000000808001
8000000000410001
80000000003E0001
8000000000000001
80001F0000F80001
8000208001040001
8000404002020001
80008E2004710001
8001111008888001
8001209009048001
8001249009248001
8001209009048001
8001111008888001
80008E2004710001
8000404002020001
8000208001040001
80001F0000F80001
8000000000000001
80001F0000F80001
8000208001040001
8000404002020001
80008E2004710001
8001111008888001
8001209009048001
8001249009248001
8001209009048001
8001111008888001
80008E2004710001
8000404002020001
8000208001040001
80001F0000F80001
8000000000000001
8000000000000001
8000000000000001
8000000000000001
8000000000000001
FFFFFFFFFFFFFFFF
ENDCHAR
STARTCHAR H28
ENCODING 40
SWIDTH 64 0
DWIDTH 64 0
BBX 64 64 0 -64
BITMAP
FFFFFFFFFFFFFFFF
8000000000000001
8000000000000001
8000000000000001
80001F0001F00001
8000208002080F81
80004040040418C1
80008E2008E218C1
80011110111118C1
8001209012090F81
80012490124918C1
80012090120918C1
80011110111118C1
80008E2008E218C1
8000404004040F81
8000208002080001
80001F0001F00001
8000000000000001
80001F0001F00001
8000208002080001
8000404004040001
80008E2008E20001
8001111011110001
8001209012090001
8001249012490001
8001209012090001
8001111011110001
80008E2008E20001
8000404004040001
8000208002080001
80001F0001F00001
8000000000000001
80001F0001F00001
8000208002080001
8000404004040001
80008E2008E20001
8001111011110001
8001209012090001
8001249012490001
8001209012090001
8001111011110001
80008E2008E20001
8000404004040001
8000208002080001
80001F0001F00001
8000000000000001
80001F0001F00001
8000208002080001
8000404004040001
80008E2008E20001
8001111011110001
8001209012090001
8001249012490001
8001209012090001
8001111011110001
80008E2008E20001
8000404004040001
8000208002080001
80001F0001F00001
8000000000000001
8000000000000001
8000000000000001
8000000000000001
FFFFFFFFFFFFFFFF
ENDCHAR
STARTCHAR H29
ENCODING 41
SWIDTH 64 0
DWIDTH 64 0
BBX 64 64 0 -64
BITMAP
FFFFFFFFFFFFFFFF
8000000000000001
8000000000000001
8000000000000001
8000000000000001
8000000000000001
8000000000000001
8001F007C01F0001
8002080820208001
8004041010404001
8008E223888E2001
8011114445111001
8012094825209001
8012494925249001
8012094825209001
8011114445111001
8008E223888E2001
8004041010404F81
80020808202098C1
8001F007C01F18C1
80000000000018C1
80000000000018C1
8000000000000FC1
80000000000000C1
80000000000000C1
8001F007C01F18C1
8002080820208F81
8004041010404001
8008E223888E2001
8011114445111001
8012094825209001
8012494925249001
8012094825209001
8011114445111001
8008E223888E2001
8004041010404001
8002080820208001
8001F007C01F0001
8000000000000001
8000000000000001
8000000000000001
8000000000000001
8000000000000001
8001F007C01F0001
8002080820208001
8004041010404001
8008E223888E2001
8011114445111001
8012094825209001
8012494925249001
8012094825209001
8011114445111001
8008E223888E2001
8004041010404001
8002080820208001
8001F007C01F0001
8000000000000001
8000000000000001
8000000000000001
8000000000000001
8000000000000001
8000000000000001
8000000000000001
FFFFFFFFFFFFFFFF
ENDCHAR
STARTCHAR H2a
ENCODING 42
SWIDTH 64 0
DWIDTH 64 0
BBX 64 64 0 -64
BITMAP
FFFFFFFFFFFFFFFF
8000000000000001
8000000000000001
8000000000000001
8000000000000001
8000000000000001
8000000000000001
8000000000000001
8000000000000001
8000000000000001
8000000000000001
8000000000000001
8000000000000001
8000000000000001
8000000000000001
8000000000000001
8000000000000001
8000000000000001
8000000000000001
8000000000000001
8000000000000001
8000000000000001
8000000000000001
8000000000000001
8000000000000001
8000000000000001
8000000000000001
8000000000000001
8000000000000001
8000000000000001
8000000000000001
8000000000000001
8000000000000001
8000000000000001
8000000000000001
8000000000000001
8000000000000001
8000000000000001
8000000000000001
8000000000000001
8000000000000001
8000000000000001
8000000000000001
8000000000000001
8000000000000001
8000000000000001
8000000000000001
8000000000000001
8000000000000001
8000000000000001
8000000000000001
8000000000000001
8000000000000001
8000000000000001
8000000000000001
8000000000000001
8000000000000001
8000000000000001
8000000000000001
8000000000000001
8000000000000001
8000000000000001
8000000000000001
FFFFFFFFFFFFFFFF
ENDCHAR
STARTCHAR H2b
ENCODING 43
SWIDTH 64 0
DWIDTH 64 0
BBX 64 64 0 -64
BITMAP
FFFFFFFFFFFFFFFF
8000000000000001
8000000000000001
8000000000000001
8000000000000001
8000000000000001
8000000000000001
8000000000000001
8000000000000001
8000000000000001
8000000000000001
8000000000000001
8000000000000001
8000000000000001
8000000000000001
8000000000000001
8000000000000001
8000000000000001
8000000000000001
8000000000000001
8000000000000001
8000000000000001
8000000000000001
8000000000000001
8000000000000001
8000000000000001
8000000000000001
8000000000000001
8000000000000001
8000000000000001
8000000000000001
8000000000000001
8000000000000001
8000000000000001
8000000000000001
8000000000000001
8000000000000001
8000000000000001
8000000000000001
8000000000000001
8000000000000001
8000000000000001
8000000000000001
8000000000000001
8000000000000001
8000000000000001
8000000000000001
8000000000000001
8000000000000001
8000000000000001
8000000000000001
8000000000000001
8000000000000001
8000000000000001
8000000000000001
8000000000000001
8000000000000001
8000000000000001
8000000000000001
8000000000000001
8000000000000001
8000000000000001
8000000000000001
FFFFFFFFFFFFFFFF
ENDCHAR
STARTCHAR H2c
ENCODING 44
SWIDTH 64 0
DWIDTH 64 0
BBX 64 64 0 -64
BITMAP
FFFFFFFFFFFFFFFF
8000000000000001
8000000000000001
8000000000000001
8000000000000001
8000000000000001
8000000000000001
8000000000000001
8000000000000001
8000000000000001
8000000000000001
8000000000000001
8000000000000001
8000000000000001
8000000000000001
8000000000000001
8000000000000001
8000000000000001
8000000000000001
8000000000000001
8000000000000001
8000000000000001
8000000000000001
8000000000000001
8000000000000001
8000000000000001
8000000000000001
8000000000000001
8000000000000001
8000000000000001
8000000000000001
8000000000000001
8000000000000001
8000000000000001
8000000000000001
8000000000000001
8000000000000001
8000000000000001
8000000000000001
8000000000000001
8000000000000001
8000000000000001
8000000000000001
8000000000000001
8000000000000001
8000000000000001
8000000000000001
8000000000000001
8000000000000001
8000000000000001
8000000000000001
8000000000000001
8000000000000001
8000000000000001
8000000000000001
8000000000000001
8000000000000001
8000000000000001
8000000000000001
8000000000000001
8000000000000001
8000000000000001
8000000000000001
FFFFFFFFFFFFFFFF
ENDCHAR
STARTCHAR H2d
ENCODING 45
SWIDTH 64 0
DWIDTH 64 0
BBX 64 64 0 -64
BITMAP
FFFFFFFFFFFFFFFF
8000000000000001
8000000000000001
8000000000000001
8000000000000001
8000000000000001
8000000000000001
8000000000000001
8000000000000001
8000000000000001
8000000000000001
8000000000000001
8000000000000001
8000000000000001
8000000000000001
8000000000000001
8000000000000001
8000000000000001
8000000000000001
8000000000000001
8000000000000001
8000000000000001
8000000000000001
8000000000000001
8000000000000001
8000000000000001
8000000000000001
8000000000000001
8000000000000001
8000000000000001
8000000000000001
8000000000000001
8000000000000001
8000000000000001
8000000000000001
8000000000000001
8000000000000001
8000000000000001
8000000000000001
8000000000000001
8000000000000001
8000000000000001
8000000000000001
8000000000000001
8000000000000001
8000000000000001
8000000000000001
8000000000000001
8000000000000001
8000000000000001
8000000000000001
8000000000000001
8000000000000001
8000000000000001
8000000000000001
8000000000000001
8000000000000001
8000000000000001
8000000000000001
8000000000000001
8000000000000001
8000000000000001
8000000000000001
FFFFFFFFFFFFFFFF
ENDCHAR
STARTCHAR H2e
ENCODING 46
SWIDTH 64 0
DWIDTH 64 0
BBX 64 64 0 -64
BITMAP
FFFFFFFFFFFFFFFF
8000000000000001
8000000000000001
8000000000000001
8000000000000001
8000000000000001
8000000000000001
8000000000000001
8000000000000001
8000000000000001
8000000000000001
8000000000000001
8000000000000001
8000000000000001
8000000000000001
8000000000000001
8000000000000001
8000000000000001
8000000000000001
8000000000000001
8000000000000001
8000000000000001
8000000000000001
8000000000000001
8000000000000001
8000000000000001
8000000000000001
8000000000000001
8000000000000001
8000000000000001
8000000000000001
8000000000000001
8000000000000001
8000000000000001
8000000000000001
8000000000000001
8000000000000001
8000000000000001
8000000000000001
8000000000000001
8000000000000001
8000000000000001
8000000000000001
8000000000000001
8000000000000001
8000000000000001
8000000000000001
8000000000000001
8000000000000001
8000000000000001
8000000000000001
8000000000000001
8000000000000001
8000000000000001
8000000000000001
8000000000000001
8000000000000001
8000000000000001
8000000000000001
8000000000000001
8000000000000001
8000000000000001
8000000000000001
FFFFFFFFFFFFFFFF
ENDCHAR
STARTCHAR H2f
ENCODING 47
SWIDTH 64 0
DWIDTH 64 0
BBX 64 64 0 -64
BITMAP
FFFFFFFFFFFFFFFF
8000000000000001
8000000000000001
8000000000000001
8000000000000001
8000000000000001
8000000000000001
8000000000000001
8000000000000001
8000000000000001
8000000000000001
8000000000000001
8000000000000001
8000000000000001
8000000000000001
8000000000000001
8000000000000001
8000000000000001
8000000000000001
8000000000000001
8000000000000001
8000000000000001
8000000000000001
8000000000000001
8000000000000001
8000000000000001
8000000000000001
8000000000000001
8000000000000001
8000000000000001
8000000000000001
8000000000000001
8000000000000001
8000000000000001
8000000000000001
8000000000000001
8000000000000001
8000000000000001
8000000000000001
8000000000000001
8000000000000001
8000000000000001
8000000000000001
8000000000000001
8000000000000001
8000000000000001
8000000000000001
8000000000000001
8000000000000001
8000000000000001
8000000000000001
8000000000000001
8000000000000001
8000000000000001
8000000000000001
8000000000000001
8000000000000001
8000000000000001
8000000000000001
8000000000000001
8000000000000001
8000000000000001
8000000000000001
FFFFFFFFFFFFFFFF
ENDCHAR
STARTCHAR H30
ENCODING 48
SWIDTH 64 0
DWIDTH 64 0
BBX 64 64 0 -64
BITMAP
FFFFFFFFFFFFFFFF
8000000000000001
8000000000000001
8000000000000001
8000000000000001
8000000000000001
8000000000000001
8000000000000001
8000000000000001
8000000000000001
8000000000000001
8000000000000001
8000000000000001
8000000000000001
8000000000000001
8000000000000001
8000000000000001
8000000000000001
8000000000000001
8000000000000001
8000000000000001
8000000000000001
8000000000000001
8000000000000001
8000000000000001
8000000000000001
8000000000000001
8000000000000001
8000000000000001
8000000000000001
8000000000000001
8000000000000001
8000000000000001
8000000000000001
8000000000000001
8000000000000001
8000000000000001
8000000000000001
8000000000000001
8000000000000001
8000000000000001
8000000000000001
8000000000000001
8000000000000001
8000000000000001
8000000000000001
8000000000000001
8000000000000001
8000000000000001
8000000000000001
8000000000000001
8000000000000001
8000000000000001
8000000000000001
8000000000000001
8000000000000001
8000000000000001
8000000000000001
8000000000000001
8000000000000001
8000000000000001
8000000000000001
8000000000000001
FFFFFFFFFFFFFFFF
ENDCHAR
STARTCHAR H31
ENCODING 49
SWIDTH 64 0
DWIDTH 64 0
BBX 64 64 0 -64
BITMAP
FFFFFFFFFFFFFFFF
8000000000000001
8000000000000001
8000000000000001
8000000000000001
8000000000000301
8000000000000701
8000000000000F01
8000000000000301
8000000000000301
8000000000000301
8000000000000301
8000000000000301
800000001FFC0301
80006001FFFE0FC1
80007FFFFFCF0001
80007FFFFE078001
80001FFFF0038001
800007FF00018001
800001F000000001
8000000000000001
8000000000000001
8000000000000001
8000000000000001
8000000004000001
800000003E000001
80000000CE000001
800000030C000001
8000000C0F000001
800000081F000001
80000008E0000001
8000001F00000001
800000F018000001
80000003FC000001
800000074C000001
8000000C4C000001
8000000CFC000001
8000000FCC000001
8000000C4C000001
8000000DFC000001
8000000F4C000001
8000000C47FF0001
8000000CFC1FC001
8000000FC403C001
8000003E4601C001
800001E07F01E001
80000F81E301C001
8000780F8103C001
8001F01E00078001
8007380C000F0001
80001800001F0001
80001C00303E0001
80000C001C7C0001
8000000007F00001
8000000001E00001
8000000000000001
8000000000000001
8000000000000001
8000000000000001
8000000000000001
8000000000000001
8000000000000001
8000000000000001
FFFFFFFFFFFFFFFF
ENDCHAR
STARTCHAR H32
ENCODING 50
SWIDTH 64 0
DWIDTH 64 0
BBX 64 64 0 -64
BITMAP
FFFFFFFFFFFFFFFF
8000000000000001
8000000000000001
8000000000000001
8000000000000001
8000000000000F81
80000000006018C1
8000000003F018C1
800000001FF000C1
80000003FFF80181
80000001FE000301
8000000000000601
8000000000300C01
8000000000F81841
800000000FFC1FC1
8000000FFF9E0001
80001FFFFC0F0001
80001FFFF807C001
80000FFF80038001
800007FE00000001
800003C000000001
8000000000000001
8000000000000001
8000000000000001
8000000004000001
800000003E000001
80000000CE000001
800000030C000001
8000000C0F000001
800000081F000001
80000008E0000001
8000001F00000001
800000F018000001
80000003FC000001
800000074C000001
8000000C4C000001
8000000CFC000001
8000000FCC000001
8000000C4C000001
8000000DFC000001
8000000F4C000001
8000000C47FF0001
8000000CFC1FC001
8000000FC403C001
8000003E4601C001
800001E07F01E001
80000F81E301C001
8000780F8103C001
8001F01E00078001
8007380C000F0001
80001800001F0001
80001C00303E0001
80000C001C7C0001
8000000007F00001
8000000001E00001
8000000000000001
8000000000000001
8000000000000001
8000000000000001
8000000000000001
8000000000000001
8000000000000001
8000000000000001
FFFFFFFFFFFFFFFF
ENDCHAR
STARTCHAR H33
ENCODING 51
SWIDTH 64 0
DWIDTH 64 0
BBX 64 64 0 -64
BITMAP
FFFFFFFFFFFFFFFF
8000000000000001
8000000000000001
8000000000000001
8000000000000001
8000000000F00F81
800000000FF018C1
80000003FFF018C1
80000001F80000C1
8000000000C00781
8000000003E001C1
800000001FE000C1
80000007FF8018C1
80000003F80018C1
8000000000F00F81
8000000003FC0001
80000F81FF9F0001
800007FFFE0F0001
800003FFF8078001
800000FFE0018001
8000003F00000001
8000000000000001
8000000000000001
8000000000000001
8000000004000001
800000003E000001
80000000CE000001
800000030C000001
8000000C0F000001
800000081F000001
80000008E0000001
8000001F00000001
800000F018000001
80000003FC000001
800000074C000001
8000000C4C000001
8000000CFC000001
8000000FCC000001
8000000C4C000001
8000000DFC000001
8000000F4C000001
8000000C47FF0001
8000000CFC1FC001
8000000FC403C001
8000003E4601C001
800001E07F01E001
80000F81E301C001
8000780F8103C001
8001F01E00078001
8007380C000F0001
80001800001F0001
80001C00303E0001
80000C001C7C0001
8000000007F00001
8000000001E00001
8000000000000001
8000000000000001
8000000000000001
8000000000000001
8000000000000001
8000000000000001
8000000000000001
8000000000000001
FFFFFFFFFFFFFFFF
ENDCHAR
STARTCHAR H34
ENCODING 52
SWIDTH 64 0
DWIDTH 64 0
BBX 64 64 0 -64
BITMAP
FFFFFFFFFFFFFFFF
8000000000000001
8000000000000001
8000000000000001
8000000000000001
8000000000000081
8000000000000181
8000000000000381
8000000001E00781
800000007FF00D81
80000003FFF81981
8000001F9C7C3181
800000FF1C3E3FC1
80003FEE183F0181
8001FF86187F8181
8003FE06187F8001
8001FF0619FF8001
8000FF063FFE0001
8000FF8FFFFC0001
80001FFFE0F00001
800003F800000001
800000E000000001
8000000000000001
8000000000000001
8000000004000001
800000003E000001
80000000CE000001
800000030C000001
8000000C0F000001
800000081F000001
80000008E0000001
8000001F00000001
800000F018000001
80000003FC000001
800000074C000001
8000000C4C000001
8000000CFC000001
8000000FCC000001
8000000C4C000001
8000000DFC000001
8000000F4C000001
8000000C47FF0001
8000000CFC1FC001
8000000FC403C001
8000003E4601C001
800001E07F01E001
80000F81E301C001
8000780F8103C001
8001F01E00078001
8007380C000F0001
80001800001F0001
80001C00303E0001
80000C001C7C0001
8000000007F00001
8000000001E00001
8000000000000001
8000000000000001
8000000000000001
8000000000000001
8000000000000001
8000000000000001
8000000000000001
8000000000000001
FFFFFFFFFFFFFFFF
ENDCHAR
STARTCHAR H35
ENCODING 53
SWIDTH 64 0
DWIDTH 64 0
BBX 64 64 0 -64
BITMAP
FFFFFFFFFFFFFFFF
8000000000000001
8000000000000001
8000000000000001
8000000000000001
8000000000801FC1
8000008003801801
800000E01FC01801
800000F9FFC01F81
800000FDFC0000C1
800000F8180000C1
800001F8180000C1
800003F0187018C1
800003E039F818C1
800007C07FF80F81
80000FC038380001
80001D8030300001
8000198030200001
8000308030600001
80006180FFFE0001
8000C183FFFF0001
80000183C03F8001
800003020007C001
8000000000018001
8000000004000001
800000003E000001
80000000CE000001
800000030C000001
8000000C0F000001
800000081F000001
80000008E0000001
8000001F00000001
800000F018000001
80000003FC000001
800000074C000001
8000000C4C000001
8000000CFC000001
8000000FCC000001
8000000C4C000001
8000000DFC000001
8000000F4C000001
8000000C47FF0001
8000000CFC1FC001
8000000FC403C001
8000003E4601C001
800001E07F01E001
80000F81E301C001
8000780F8103C001
8001F01E00078001
8007380C000F0001
80001800001F0001
80001C00303E0001
80000C001C7C0001
8000000007F00001
8000000001E00001
8000000000000001
8000000000000001
8000000000000001
8000000000000001
8000000000000001
8000000000000001
8000000000000001
8000000000000001
FFFFFFFFFFFFFFFF
ENDCHAR
STARTCHAR H36
ENCODING 54
SWIDTH 64 0
DWIDTH 64 0
BBX 64 64 0 -64
BITMAP
FFFFFFFFFFFFFFFF
8000000000000001
8000000000000001
8000000000000001
8000000000000001
8000000300000F81
80000007E00018C1
8000000FF0001801
8000000FF0001801
8000000FC0001F81
8000000F000018C1
8000000F3FC018C1
8000000FFFF818C1
8000001FE07E18C1
800001FF001F8F81
8003FFF83F1F8001
8003FF801FC78001
800000360FE00001
8000003F83F00001
8000001F81F00001
8000003F80F00001
8000003F80700001
8000007F00000001
800000FC00000001
800001F004000001
800003C03E000001
80000700CE000001
800000030C000001
8000000C0F000001
800000081F000001
80000008E0000001
8000001F00000001
800000F018000001
80000003FC000001
800000074C000001
8000000C4C000001
8000000CFC000001
8000000FCC000001
8000000C4C000001
8000000DFC000001
8000000F4C000001
8000000C47FF0001
8000000CFC1FC001
8000000FC403C001
8000003E4601C001
800001E07F01E001
80000F81E301C001
8000780F8103C001
8001F01E00078001
8007380C000F0001
80001800001F0001
80001C00303E0001
80000C001C7C0001
8000000007F00001
8000000001E00001
8000000000000001
8000000000000001
8000000000000001
8000000000000001
8000000000000001
8000000000000001
8000000000000001
8000000000000001
FFFFFFFFFFFFFFFF
ENDCHAR
STARTCHAR H37
ENCODING 55
SWIDTH 64 0
DWIDTH 64 0
BBX 64 64 0 -64
BITMAP
FFFFFFFFFFFFFFFF
8000000000000001
8000000000000001
8000000000000001
8000000000000001
8000000000001FC1
80000000000010C1
80000700000010C1
800007E018000181
800007E01FF80181
80000FE03FFC0301
80001FE0FFFC0301
800000E1E1FC0601
8000006780180601
8000007E00000601
8000007800000001
800000F000000001
800001E03C000001
80000378FE000001
80000E3FFE000001
8000381FFC000001
8000F00FFC000001
8003E003FC000001
800FC00000000001
800F800004000001
800380003E000001
80000000CE000001
800000030C000001
8000000C0F000001
800000081F000001
80000008E0000001
8000001F00000001
800000F018000001
80000003FC000001
800000074C000001
8000000C4C000001
8000000CFC000001
8000000FCC000001
8000000C4C000001
8000000DFC000001
8000000F4C000001
8000000C47FF0001
8000000CFC1FC001
8000000FC403C001
8000003E4601C001
800001E07F01E001
80000F81E301C001
8000780F8103C001
8001F01E00078001
8007380C000F0001
80001800001F0001
80001C00303E0001
80000C001C7C0001
8000000007F00001
8000000001E00001
8000000000000001
8000000000000001
8000000000000001
8000000000000001
8000000000000001
8000000000000001
8000000000000001
8000000000000001
FFFFFFFFFFFFFFFF
ENDCHAR
STARTCHAR H38
ENCODING 56
SWIDTH 64 0
DWIDTH 64 0
BBX 64 64 0 -64
BITMAP
FFFFFFFFFFFFFFFF
8000000000000001
8000000000000001
8000000000000001
8000000000000001
8000000000000F81
80000003E00018C1
8000001FE00018C1
8000003FF00018C1
8000003FF0000F81
8000003FF80018C1
800000007C0018C1
800000001E0018C1
8000000F8F8018C1
8000001F87C00F81
8000003FC3E00001
8000007FC1F00001
800000FFC0F80001
800001FFC07E0001
800003E1C03F8001
80000780003FC001
80000F00001FE001
80001E00000FE001
80003C000003E001
8000F00004000001
8001C0003E000001
80000000CE000001
800000030C000001
8000000C0F000001
800000081F000001
80000008E0000001
8000001F00000001
800000F018000001
80000003FC000001
800000074C000001
8000000C4C000001
8000000CFC000001
8000000FCC000001
8000000C4C000001
8000000DFC000001
8000000F4C000001
8000000C47FF0001
8000000CFC1FC001
8000000FC403C001
8000003E4601C001
800001E07F01E001
80000F81E301C001
8000780F8103C001
8001F01E00078001
8007380C000F0001
80001800001F0001
80001C00303E0001
80000C001C7C0001
8000000007F00001
8000000001E00001
8000000000000001
8000000000000001
8000000000000001
8000000000000001
8000000000000001
8000000000000001
8000000000000001
8000000000000001
FFFFFFFFFFFFFFFF
ENDCHAR
STARTCHAR H39
ENCODING 57
SWIDTH 64 0
DWIDTH 64 0
BBX 64 64 0 -64
BITMAP
FFFFFFFFFFFFFFFF
8000000000000001
8000000000000001
8000000000000001
8000000000000001
8000000300000F81
80000003878018C1
80000003FF8018C1
80000003FF8018C1
800001FFFF8098C1
800001FFFF808FC1
8000007FE60080C1
8000003FCC0080C1
80000007840098C1
8000000706008F81
8000000F06008001
8000000E0700C001
8000001E03C1C001
8000001C01FFF001
80000038007FF001
80000070000FE001
800000E000000001
800001C000000001
8000078000000001
80000E0004000001
800038003E000001
80000000CE000001
800000030C000001
8000000C0F000001
800000081F000001
80000008E0000001
8000001F00000001
800000F018000001
80000003FC000001
800000074C000001
8000000C4C000001
8000000CFC000001
8000000FCC000001
8000000C4C000001
8000000DFC000001
8000000F4C000001
8000000C47FF0001
8000000CFC1FC001
8000000FC403C001
8000003E4601C001
800001E07F01E001
80000F81E301C001
8000780F8103C001
8001F01E00078001
8007380C000F0001
80001800001F0001
80001C00303E0001
80000C001C7C0001
8000000007F00001
8000000001E00001
8000000000000001
8000000000000001
8000000000000001
8000000000000001
8000000000000001
8000000000000001
8000000000000001
8000000000000001
FFFFFFFFFFFFFFFF
ENDCHAR
STARTCHAR H3a
ENCODING 58
SWIDTH 64 0
DWIDTH 64 0
BBX 64 64 0 -64
BITMAP
FFFFFFFFFFFFFFFF
8000000000000001
8000000000000001
8000000000000001
8000000000000001
8000000000000001
8000000000000001
8000000000000001
8000000000000001
8000000000000001
8000000000000001
8000000000000001
8000000000000001
8000000000000001
8000000000000001
8000000000000001
8000000000000001
8000000000000001
8000000000000001
8000000000000001
8000000000000001
8000000000000001
8000000000000001
8000000000000001
8000000000000001
8000000000000001
8000000000000001
8000000000000001
8000000000000001
8000000000000001
8000000000000001
8000000000000001
8000000000000001
8000000000000001
8000000000000001
8000000000000001
8000000000000001
8000000000000001
8000000000000001
8000000000000001
8000000000000001
8000000000000001
8000000000000001
8000000000000001
8000000000000001
8000000000000001
8000000000000001
8000000000000001
8000000000000001
8000000000000001
8000000000000001
8000000000000001
8000000000000001
8000000000000001
8000000000000001
8000000000000001
8000000000000001
8000000000000001
8000000000000001
8000000000000001
8000000000000001
8000000000000001
8000000000000001
FFFFFFFFFFFFFFFF
ENDCHAR
STARTCHAR H3b
ENCODING 59
SWIDTH 64 0
DWIDTH 64 0
BBX 64 64 0 -64
BITMAP
FFFFFFFFFFFFFFFF
8000000000000001
8000000000000001
8000000000000001
8000000000000001
8000000000000001
8000000000000001
8000000000000001
8000000000000001
8000000000000001
8000000000000001
8000000000000001
8000000000000001
8000000000000001
8000000000000001
8000000000000001
8000000000000001
8000000000000001
8000000000000001
8000000000000001
8000000000000001
8000000000000001
8000000000000001
8000000000000001
8000000000000001
8000000000000001
8000000000000001
8000000000000001
8000000000000001
8000000000000001
8000000000000001
8000000000000001
8000000000000001
8000000000000001
8000000000000001
8000000000000001
8000000000000001
8000000000000001
8000000000000001
8000000000000001
8000000000000001
8000000000000001
8000000000000001
8000000000000001
8000000000000001
8000000000000001
8000000000000001
8000000000000001
8000000000000001
8000000000000001
8000000000000001
8000000000000001
8000000000000001
8000000000000001
8000000000000001
8000000000000001
8000000000000001
8000000000000001
8000000000000001
8000000000000001
8000000000000001
8000000000000001
8000000000000001
FFFFFFFFFFFFFFFF
ENDCHAR
STARTCHAR H3c
ENCODING 60
SWIDTH 64 0
DWIDTH 64 0
BBX 64 64 0 -64
BITMAP
FFFFFFFFFFFFFFFF
8000000000000001
8000000000000001
8000000000000001
8000000000000001
8000000000000001
8000000000000001
8000000000000001
8000000000000001
8000000000000001
8000000000000001
8000000000000001
8000000000000001
8000000000000001
8000000000000001
8000000000000001
8000000000000001
8000000000000001
8000000000000001
8000000000000001
8000000000000001
8000000000000001
8000000000000001
8000000000000001
8000000000000001
8000000000000001
8000000000000001
8000000000000001
8000000000000001
8000000000000001
8000000000000001
8000000000000001
8000000000000001
8000000000000001
8000000000000001
8000000000000001
8000000000000001
8000000000000001
8000000000000001
8000000000000001
8000000000000001
8000000000000001
8000000000000001
8000000000000001
8000000000000001
8000000000000001
8000000000000001
8000000000000001
8000000000000001
8000000000000001
8000000000000001
8000000000000001
8000000000000001
8000000000000001
8000000000000001
8000000000000001
8000000000000001
8000000000000001
8000000000000001
8000000000000001
8000000000000001
8000000000000001
8000000000000001
FFFFFFFFFFFFFFFF
ENDCHAR
STARTCHAR H3d
ENCODING 61
SWIDTH 64 0
DWIDTH 64 0
BBX 64 64 0 -64
BITMAP
FFFFFFFFFFFFFFFF
8000000000000001
8000000000000001
8000000000000001
8000000000000001
8000000000000001
8000000000000001
8000000000000001
8000000000000001
8000000000000001
8000000000000001
8000000000000001
8000000000000001
8000000000000001
8000000000000001
8000000000000001
8000000000000001
8000000000000001
8000000000000001
8000000000000001
8000000000000001
8000000000000001
8000000000000001
8000000000000001
8000000000000001
8000000000000001
8000000000000001
8000000000000001
8000000000000001
8000000000000001
8000000000000001
8000000000000001
8000000000000001
8000000000000001
8000000000000001
8000000000000001
8000000000000001
8000000000000001
8000000000000001
8000000000000001
8000000000000001
8000000000000001
8000000000000001
8000000000000001
8000000000000001
8000000000000001
8000000000000001
8000000000000001
8000000000000001
8000000000000001
8000000000000001
8000000000000001
8000000000000001
8000000000000001
8000000000000001
8000000000000001
8000000000000001
8000000000000001
8000000000000001
8000000000000001
8000000000000001
8000000000000001
8000000000000001
FFFFFFFFFFFFFFFF
ENDCHAR
STARTCHAR H3e
ENCODING 62
SWIDTH 64 0
DWIDTH 64 0
BBX 64 64 0 -64
BITMAP
FFFFFFFFFFFFFFFF
8000000000000001
8000000000000001
8000000000000001
8000000000000001
8000000000000001
8000000000000001
8000000000000001
8000000000000001
8000000000000001
8000000000000001
8000000000000001
8000000000000001
8000000000000001
8000000000000001
8000000000000001
8000000000000001
8000000000000001
8000000000000001
8000000000000001
8000000000000001
8000000000000001
8000000000000001
8000000000000001
8000000000000001
8000000000000001
8000000000000001
8000000000000001
8000000000000001
8000000000000001
8000000000000001
8000000000000001
8000000000000001
8000000000000001
8000000000000001
8000000000000001
8000000000000001
8000000000000001
8000000000000001
8000000000000001
8000000000000001
8000000000000001
8000000000000001
8000000000000001
8000000000000001
8000000000000001
8000000000000001
8000000000000001
8000000000000001
8000000000000001
8000000000000001
8000000000000001
8000000000000001
8000000000000001
8000000000000001
8000000000000001
8000000000000001
8000000000000001
8000000000000001
8000000000000001
8000000000000001
8000000000000001
8000000000000001
FFFFFFFFFFFFFFFF
ENDCHAR
STARTCHAR H3f
ENCODING 63
SWIDTH 64 0
DWIDTH 64 0
BBX 64 64 0 -64
BITMAP
FFFFFFFFFFFFFFFF
8000000000000001
8000000000000001
8000000000000001
8000000000000001
8000000000000001
8000000000000001
8000000000000001
8000000000000001
8000000000000001
8000000000000001
8000000000000001
8000000000000001
8000000000000001
8000000000000001
8000000000000001
8000000000000001
8000000000000001
8000000000000001
8000000000000001
8000000000000001
8000000000000001
8000000000000001
8000000000000001
8000000000000001
8000000000000001
8000000000000001
8000000000000001
8000000000000001
8000000000000001
8000000000000001
8000000000000001
8000000000000001
8000000000000001
8000000000000001
8000000000000001
8000000000000001
8000000000000001
8000000000000001
8000000000000001
8000000000000001
8000000000000001
8000000000000001
8000000000000001
8000000000000001
8000000000000001
8000000000000001
8000000000000001
8000000000000001
8000000000000001
8000000000000001
8000000000000001
8000000000000001
8000000000000001
8000000000000001
8000000000000001
8000000000000001
8000000000000001
8000000000000001
8000000000000001
8000000000000001
8000000000000001
8000000000000001
FFFFFFFFFFFFFFFF
ENDCHAR
STARTCHAR H40
ENCODING 64
SWIDTH 64 0
DWIDTH 64 0
BBX 64 64 0 -64
BITMAP
FFFFFFFFFFFFFFFF
8000000000000001
8000000000000001
8000000000000001
8000000000000001
8000000000000001
8000000000000001
8000000000000001
8000000000000001
8000000000000001
8000000000000001
8000000000000001
8000000000000001
8000000000000001
8000000000000001
8000000000000001
8000000000000001
8000000000000001
8000000000000001
8000000000000001
8000000000000001
8000000000000001
8000000000000001
8000000000000001
8000000000000001
8000000000000001
8000000000000001
8000000000000001
8000000000000001
8000000000000001
8000000000000001
8000000000000001
8000000000000001
8000000000000001
8000000000000001
8000000000000001
8000000000000001
8000000000000001
8000000000000001
8000000000000001
8000000000000001
8000000000000001
8000000000000001
8000000000000001
8000000000000001
8000000000000001
8000000000000001
8000000000000001
8000000000000001
8000000000000001
8000000000000001
8000000000000001
8000000000000001
8000000000000001
8000000000000001
8000000000000001
8000000000000001
8000000000000001
8000000000000001
8000000000000001
8000000000000001
8000000000000001
8000000000000001
FFFFFFFFFFFFFFFF
ENDCHAR
STARTCHAR H41
ENCODING 65
SWIDTH 64 0
DWIDTH 64 0
BBX 64 64 0 -64
BITMAP
FFFFFFFFFFFFFFFF
8000000000000001
8000000000000001
8000000000000001
8000000000000001
80000000000018C1
80000000000018C1
8000000000001CC1
8000000000001CC1
8000000003001EC1
8000000003801AC1
8000000007C01BC1
8000000007E019C1
800000000FF019C1
80000300FFF818C1
80000380FFFC0001
800003807FFC0001
800007C07FFC0001
80000FE03FF80001
8000FFF80FF00001
80007FF80F000001
80003FF01E000001
80001FE01E000001
80FF0F801E000001
80FF0F001E000001
807F0F001E03C001
807F8F001E07E001
807F8F001E07E001
807F8F003C07E001
807F8F003C07E001
80000F003C0FC001
80000F003FFF8001
80000F003FFE0001
80000F383F800001
80C00FF87C000001
80E00FF07C000001
80FC3FC07C000001
80FFFF0078000001
80FFFE0078000001
81FFFE0078000001
81FFDE0078000001
80FF8E0078000001
807C0E007C07C001
80001E007C07E001
80001C007F0FE001
80001C007FFFE001
80001C003FFFE001
80001C001FFFC001
80000C000FFF8001
8000000007FE0001
8000000000000001
8000000000000001
8000000000000001
8000000000000001
8000000000000001
8000000000000001
8000000000000001
8000000000000001
8000000000000001
8000000000000001
8000000000000001
8000000000000001
8000000000000001
FFFFFFFFFFFFFFFF
ENDCHAR
STARTCHAR H42
ENCODING 66
SWIDTH 64 0
DWIDTH 64 0
BBX 64 64 0 -64
BITMAP
FFFFFFFFFFFFFFFF
8000000000000001
8000000000000001
8000000000000001
8000000000000001
8000000000000F81
80000000000018C1
80000000000018C1
8000000000000C01
8000000800000701
8000000E20000181
80000007F00000C1
80000007F80018C1
80000003FC0018C1
80000001FE000F81
80000001FF000001
80000001FE000001
80000000F8000001
80000000E0000001
80000000C0000001
80000000C0000001
80000000C0000001
80000000C7000001
80000000FF000001
80000003FF000001
8000003FE0000001
80000000C0000001
8000000080000001
8000000080000001
8000000181C00001
8000010181C00001
800001C1BFC00001
800000E1FFF00001
800000FFE3F80001
8000007F04FC0001
800001F0047E0001
80000780081F0001
800006003C0F8001
80000001F007C001
8000000FE007E001
8000001FC007F001
80000001C007F001
80000001830FE001
800030019F0FE001
80003801FF0FC001
80001C07E01F8001
80001F1F801F8001
80000FF9803F0001
80000FE1867F0001
80000F0103FE0001
8000070001FE0001
80000300007C0001
80000000003C0001
8000000000000001
8000000000000001
8000000000000001
8000000000000001
8000000000000001
8000000000000001
8000000000000001
8000000000000001
8000000000000001
8000000000000001
FFFFFFFFFFFFFFFF
ENDCHAR
STARTCHAR H43
ENCODING 67
SWIDTH 64 0
DWIDTH 64 0
BBX 64 64 0 -64
BITMAP
FFFFFFFFFFFFFFFF
8000000000000001
8000000000000001
8000000000000001
8000000000000001
8000000000001FC1
8000000000001801
8000000000001801
8000000000001801
8000000000001F81
8000000000001801
8000000000001801
8000001800001801
8000001F80001801
8000000FE0001FC1
80000007E0000001
80000003E0000001
8000000380000001
8000000300000001
8000000300000001
8000000300000001
8000000318000001
80000003F8000001
80000007F8000001
800000FF00000001
8000100300000001
8000180300000001
80000C3FFE000001
80000EFFFF800001
80000F8303C00001
80000F0301E00001
80000E0301F00001
80000E7FF1F00001
80000FFFF8F00001
80000FC300F00001
80000E0301E00001
80000F0303E00001
800007030F800001
800003FFFE000001
8000000300000001
8000000300000001
8000000300000001
8000003330000001
800000731C000001
800000F30E000001
800001E307C00001
800007C303F80001
80001FC301FFC001
8001FF03007FE001
807FFC030007F001
800FF0030001F801
8000000F00007C01
8000000F00001E01
8000000F80000E01
8000000780000001
8000000700000001
8000000200000001
8000000000000001
8000000000000001
8000000000000001
8000000000000001
8000000000000001
8000000000000001
FFFFFFFFFFFFFFFF
ENDCHAR
STARTCHAR H44
ENCODING 68
SWIDTH 64 0
DWIDTH 64 0
BBX 64 64 0 -64
BITMAP
FFFFFFFFFFFFFFFF
8000000000000001
8000000000000001
8000000000000001
8000000000000001
80000000000060C1
80000000000064C1
80000000000064C1
8000000000006EC1
8000000000002E81
8000000000003B81
8000000000003B81
8000000000001B01
8000000000001101
8000000000061101
8000000000FF0001
8000000007FF8001
800000007FFFC001
8000000FFF1FE001
800001FFFC1FF001
80007FFFC00FF001
8003FFF00000E001
8003FF8000006001
8000FC0007800001
800078000FC00001
800000001FC00001
800000003FE00001
800000007FE00001
80000E007FE00001
80000E00FFC00001
80001C00EF800001
80001C01CF000001
80001C0186000001
80001C030E000001
80001C020E000001
80000C060C000001
80008FFFFE000001
8003FF1FFFE00001
8003860C3E7C0001
80038608181F8001
80078318181FC001
8007C118181FC001
8003C1B8301FC001
8003C0F0201FC001
8003E0F0601FC001
8001E0F0403F8001
8000F0F0C07F0001
8000F0E7E07C0001
8000787FF9F80001
80003C781FF80001
80000C600FF80001
8000040007F00001
8000000003C00001
8000000003800001
8000000000000001
8000000000000001
8000000000000001
8000000000000001
8000000000000001
8000000000000001
8000000000000001
8000000000000001
8000000000000001
FFFFFFFFFFFFFFFF
ENDCHAR
STARTCHAR H45
ENCODING 69
SWIDTH 64 0
DWIDTH 64 0
BBX 64 64 0 -64
BITMAP
FFFFFFFFFFFFFFFF
8000000000000001
8000000000000001
8000000000000001
8000000000000001
8000000000000001
8000000000000001
8000000000000001
8000000000000001
8000000000000001
8000000000000001
8000000000000001
8000000000000001
8000000000000001
8000000000000001
8000000000000001
8000000000000001
8000000000000001
8000000000000001
8000000000000001
8000000000000001
8000000000000001
8000000000000001
8000000000000001
8000000000000001
8000000000000001
8000000000000001
8000000000000001
8000000000000001
8000000000000001
8000000000000001
8000000000000001
8000000000000001
8000000000000001
8000000000000001
8000000000000001
8000000000000001
8000000000000001
8000000000000001
8000000000000001
8000000000000001
8000000000000001
8000000000000001
8000000000000001
8000000000000001
8000000000000001
8000000000000001
8000000000000001
8000000000000001
8000000000000001
8000000000000001
8000000000000001
8000000000000001
8000000000000001
8000000000000001
8000000000000001
8000000000000001
8000000000000001
8000000000000001
8000000000000001
8000000000000001
8000000000000001
8000000000000001
FFFFFFFFFFFFFFFF
ENDCHAR
STARTCHAR H46
ENCODING 70
SWIDTH 64 0
DWIDTH 64 0
BBX 64 64 0 -64
BITMAP
FFFFFFFFFFFFFFFF
8000000000000001
8000000000000001
8000000000000001
8000000000000001
8000000000000001
8000000000000001
8000000000000001
8000000000000001
8000000000000001
8000000000000001
8000000000000001
8000000000000001
8000000000000001
8000000000000001
8000000000000001
8000000000000001
8000000000000001
8000000000000001
8000000000000001
8000000000000001
8000000000000001
8000000000000001
8000000000000001
8000000000000001
8000000000000001
8000000000000001
8000000000000001
8000000000000001
8000000000000001
8000000000000001
8000000000000001
8000000000000001
8000000000000001
8000000000000001
8000000000000001
8000000000000001
8000000000000001
8000000000000001
8000000000000001
8000000000000001
8000000000000001
8000000000000001
8000000000000001
8000000000000001
8000000000000001
8000000000000001
8000000000000001
8000000000000001
8000000000000001
8000000000000001
8000000000000001
8000000000000001
8000000000000001
8000000000000001
8000000000000001
8000000000000001
8000000000000001
8000000000000001
8000000000000001
8000000000000001
8000000000000001
8000000000000001
FFFFFFFFFFFFFFFF
ENDCHAR
STARTCHAR H47
ENCODING 71
SWIDTH 64 0
DWIDTH 64 0
BBX 64 64 0 -64
BITMAP
FFFFFFFFFFFFFFFF
8000000000000001
8000000000000001
8000000000000001
8000000000000001
8000000000000001
8000000000000001
8000000000000001
8000000000000001
8000000000000001
8000000000000001
8000000000000001
8000000000000001
8000000000000001
8000000000000001
8000000000000001
8000000000000001
8000000000000001
8000000000000001
8000000000000001
8000000000000001
8000000000000001
8000000000000001
8000000000000001
8000000000000001
8000000000000001
8000000000000001
8000000000000001
8000000000000001
8000000000000001
8000000000000001
8000000000000001
8000000000000001
8000000000000001
8000000000000001
8000000000000001
8000000000000001
8000000000000001
8000000000000001
8000000000000001
8000000000000001
8000000000000001
8000000000000001
8000000000000001
8000000000000001
8000000000000001
8000000000000001
8000000000000001
8000000000000001
8000000000000001
8000000000000001
8000000000000001
8000000000000001
8000000000000001
8000000000000001
8000000000000001
8000000000000001
8000000000000001
8000000000000001
8000000000000001
8000000000000001
8000000000000001
8000000000000001
FFFFFFFFFFFFFFFF
ENDCHAR
STARTCHAR H48
ENCODING 72
SWIDTH 64 0
DWIDTH 64 0
BBX 64 64 0 -64
BITMAP
FFFFFFFFFFFFFFFF
8000000000000001
8000000000000001
8000000000000001
8000000000000001
8000000000000001
8000000000000001
8000000000000001
8000000000000001
8000000000000001
8000000000000001
8000000000000001
8000000000000001
8000000000000001
8000000000000001
8000000000000001
8000000000000001
8000000000000001
8000000000000001
8000000000000001
8000000000000001
8000000000000001
8000000000000001
8000000000000001
8000000000000001
8000000000000001
8000000000000001
8000000000000001
8000000000000001
8000000000000001
8000000000000001
8000000000000001
8000000000000001
8000000000000001
8000000000000001
8000000000000001
8000000000000001
8000000000000001
8000000000000001
8000000000000001
8000000000000001
8000000000000001
8000000000000001
8000000000000001
8000000000000001
8000000000000001
8000000000000001
8000000000000001
8000000000000001
8000000000000001
8000000000000001
8000000000000001
8000000000000001
8000000000000001
8000000000000001
8000000000000001
8000000000000001
8000000000000001
8000000000000001
8000000000000001
8000000000000001
8000000000000001
8000000000000001
FFFFFFFFFFFFFFFF
ENDCHAR
STARTCHAR H49
ENCODING 73
SWIDTH 64 0
DWIDTH 64 0
BBX 64 64 0 -64
BITMAP
FFFFFFFFFFFFFFFF
8000000000000001
8000000000000001
8000000000000001
8000000000000001
8000000000000001
8000000000000001
8000000000000001
8000000000000001
8000000000000001
8000000000000001
8000000000000001
8000000000000001
8000000000000001
8000000000000001
8000000000000001
8000000000000001
8000000000000001
8000000000000001
8000000000000001
8000000000000001
8000000000000001
8000000000000001
8000000000000001
8000000000000001
8000000000000001
8000000000000001
8000000000000001
8000000000000001
8000000000000001
8000000000000001
8000000000000001
8000000000000001
8000000000000001
8000000000000001
8000000000000001
8000000000000001
8000000000000001
8000000000000001
8000000000000001
8000000000000001
8000000000000001
8000000000000001
8000000000000001
8000000000000001
8000000000000001
8000000000000001
8000000000000001
8000000000000001
8000000000000001
8000000000000001
8000000000000001
8000000000000001
8000000000000001
8000000000000001
8000000000000001
8000000000000001
8000000000000001
8000000000000001
8000000000000001
8000000000000001
8000000000000001
8000000000000001
FFFFFFFFFFFFFFFF
ENDCHAR
STARTCHAR H4a
ENCODING 74
SWIDTH 64 0
DWIDTH 64 0
BBX 64 64 0 -64
BITMAP
FFFFFFFFFFFFFFFF
8000000000000001
8000000000000001
8000000000000001
8000000000000001
8000000000000001
8000000000000001
8000000000000001
8000000000000001
8000000000000001
8000000000000001
8000000000000001
8000000000000001
8000000000000001
8000000000000001
8000000000000001
8000000000000001
8000000000000001
8000000000000001
8000000000000001
8000000000000001
8000000000000001
8000000000000001
8000000000000001
8000000000000001
8000000000000001
8000000000000001
8000000000000001
8000000000000001
8000000000000001
8000000000000001
8000000000000001
8000000000000001
8000000000000001
8000000000000001
8000000000000001
8000000000000001
8000000000000001
8000000000000001
8000000000000001
8000000000000001
8000000000000001
8000000000000001
8000000000000001
8000000000000001
8000000000000001
8000000000000001
8000000000000001
8000000000000001
8000000000000001
8000000000000001
8000000000000001
8000000000000001
8000000000000001
8000000000000001
8000000000000001
8000000000000001
8000000000000001
8000000000000001
8000000000000001
8000000000000001
8000000000000001
8000000000000001
FFFFFFFFFFFFFFFF
ENDCHAR
STARTCHAR H4b
ENCODING 75
SWIDTH 64 0
DWIDTH 64 0
BBX 64 64 0 -64
BITMAP
FFFFFFFFFFFFFFFF
8000000000000001
8000000000000001
8000000000000001
8000000000000001
8000000000000001
8000000000000001
8000000000000001
8000000000000001
8000000000000001
8000000000000001
8000000000000001
8000000000000001
8000000000000001
8000000000000001
8000000000000001
8000000000000001
8000000000000001
8000000000000001
8000000000000001
8000000000000001
8000000000000001
8000000000000001
8000000000000001
8000000000000001
8000000000000001
8000000000000001
8000000000000001
8000000000000001
8000000000000001
8000000000000001
8000000000000001
8000000000000001
8000000000000001
8000000000000001
8000000000000001
8000000000000001
8000000000000001
8000000000000001
8000000000000001
8000000000000001
8000000000000001
8000000000000001
8000000000000001
8000000000000001
8000000000000001
8000000000000001
8000000000000001
8000000000000001
8000000000000001
8000000000000001
8000000000000001
8000000000000001
8000000000000001
8000000000000001
8000000000000001
8000000000000001
8000000000000001
8000000000000001
8000000000000001
8000000000000001
8000000000000001
8000000000000001
FFFFFFFFFFFFFFFF
ENDCHAR
STARTCHAR H4c
ENCODING 76
SWIDTH 64 0
DWIDTH 64 0
BBX 64 64 0 -64
BITMAP
FFFFFFFFFFFFFFFF
8000000000000001
8000000000000001
8000000000000001
8000000000000001
8000000000000001
8000000000000001
8000000000000001
8000000000000001
8000000000000001
8000000000000001
8000000000000001
8000000000000001
8000000000000001
8000000000000001
8000000000000001
8000000000000001
8000000000000001
8000000000000001
8000000000000001
8000000000000001
8000000000000001
8000000000000001
8000000000000001
8000000000000001
8000000000000001
8000000000000001
8000000000000001
8000000000000001
8000000000000001
8000000000000001
8000000000000001
8000000000000001
8000000000000001
8000000000000001
8000000000000001
8000000000000001
8000000000000001
8000000000000001
8000000000000001
8000000000000001
8000000000000001
8000000000000001
8000000000000001
8000000000000001
8000000000000001
8000000000000001
8000000000000001
8000000000000001
8000000000000001
8000000000000001
8000000000000001
8000000000000001
8000000000000001
8000000000000001
8000000000000001
8000000000000001
8000000000000001
8000000000000001
8000000000000001
8000000000000001
8000000000000001
8000000000000001
FFFFFFFFFFFFFFFF
ENDCHAR
STARTCHAR H4d
ENCODING 77
SWIDTH 64 0
DWIDTH 64 0
BBX 64 64 0 -64
BITMAP
FFFFFFFFFFFFFFFF
8000000000000001
8000000000000001
8000000000000001
8000000000000001
8000000000000001
8000000000000001
8000000000000001
8000000000000001
8000000000000001
8000000000000001
8000000000000001
8000000000000001
8000000000000001
8000000000000001
8000000000000001
8000000000000001
8000000000000001
8000000000000001
8000000000000001
8000000000000001
8000000000000001
8000000000000001
8000000000000001
8000000000000001
8000000000000001
8000000000000001
8000000000000001
8000000000000001
8000000000000001
8000000000000001
8000000000000001
8000000000000001
8000000000000001
8000000000000001
8000000000000001
8000000000000001
8000000000000001
8000000000000001
8000000000000001
8000000000000001
8000000000000001
8000000000000001
8000000000000001
8000000000000001
8000000000000001
8000000000000001
8000000000000001
8000000000000001
8000000000000001
8000000000000001
8000000000000001
8000000000000001
8000000000000001
8000000000000001
8000000000000001
8000000000000001
8000000000000001
8000000000000001
8000000000000001
8000000000000001
8000000000000001
8000000000000001
FFFFFFFFFFFFFFFF
ENDCHAR
STARTCHAR H4e
ENCODING 78
SWIDTH 64 0
DWIDTH 64 0
BBX 64 64 0 -64
BITMAP
FFFFFFFFFFFFFFFF
8000000000000001
8000000000000001
8000000000000001
8000000000000001
8000000000000001
8000000000000001
8000000000000001
8000000000000001
8000000000000001
8000000000000001
8000000000000001
8000000000000001
8000000000000001
8000000000000001
8000000000000001
8000000000000001
8000000000000001
8000000000000001
8000000000000001
8000000000000001
8000000000000001
8000000000000001
8000000000000001
8000000000000001
8000000000000001
8000000000000001
8000000000000001
8000000000000001
8000000000000001
8000000000000001
8000000000000001
8000000000000001
8000000000000001
8000000000000001
8000000000000001
8000000000000001
8000000000000001
8000000000000001
8000000000000001
8000000000000001
8000000000000001
8000000000000001
8000000000000001
8000000000000001
8000000000000001
8000000000000001
8000000000000001
8000000000000001
8000000000000001
8000000000000001
8000000000000001
8000000000000001
8000000000000001
8000000000000001
8000000000000001
8000000000000001
8000000000000001
8000000000000001
8000000000000001
8000000000000001
8000000000000001
8000000000000001
FFFFFFFFFFFFFFFF
ENDCHAR
STARTCHAR H4f
ENCODING 79
SWIDTH 64 0
DWIDTH 64 0
BBX 64 64 0 -64
BITMAP
FFFFFFFFFFFFFFFF
8000000000000001
8000000000000001
8000000000000001
8000000000000001
8000000000000001
8000000000000001
8000000000000001
8000000000000001
8000000000000001
8000000000000001
8000000000000001
8000000000000001
8000000000000001
8000000000000001
8000000000000001
8000000000000001
8000000000000001
8000000000000001
8000000000000001
8000000000000001
8000000000000001
8000000000000001
8000000000000001
8000000000000001
8000000000000001
8000000000000001
8000000000000001
8000000000000001
8000000000000001
8000000000000001
8000000000000001
8000000000000001
8000000000000001
8000000000000001
8000000000000001
8000000000000001
8000000000000001
8000000000000001
8000000000000001
8000000000000001
8000000000000001
8000000000000001
8000000000000001
8000000000000001
8000000000000001
8000000000000001
8000000000000001
8000000000000001
8000000000000001
8000000000000001
8000000000000001
8000000000000001
8000000000000001
8000000000000001
8000000000000001
8000000000000001
8000000000000001
8000000000000001
8000000000000001
8000000000000001
8000000000000001
8000000000000001
FFFFFFFFFFFFFFFF
ENDCHAR
STARTCHAR H50
ENCODING 80
SWIDTH 64 0
DWIDTH 64 0
BBX 64 64 0 -64
BITMAP
FFFFFFFFFFFFFFFF
8000000000000001
8000000000000001
8000000000000001
8000000000000001
8000000000000001
8000000000000001
8000000000000001
8000000000000001
8000000000000001
8000000000000001
8000000000000001
8000000000000001
8000000000000001
8000000000000001
8000000000000001
8000000000000001
8000000000000001
8000000000000001
8000000000000001
8000000000000001
8000000000000001
8000000000000001
8000000000000001
8000000000000001
8000000000000001
8000000000000001
8000000000000001
8000000000000001
8000000000000001
8000000000000001
8000000000000001
8000000000000001
8000000000000001
8000000000000001
8000000000000001
8000000000000001
8000000000000001
8000000000000001
8000000000000001
8000000000000001
8000000000000001
8000000000000001
8000000000000001
8000000000000001
8000000000000001
8000000000000001
8000000000000001
8000000000000001
8000000000000001
8000000000000001
8000000000000001
8000000000000001
8000000000000001
8000000000000001
8000000000000001
8000000000000001
8000000000000001
8000000000000001
8000000000000001
8000000000000001
8000000000000001
8000000000000001
FFFFFFFFFFFFFFFF
ENDCHAR
STARTCHAR H51
ENCODING 81
SWIDTH 64 0
DWIDTH 64 0
BBX 64 64 0 -64
BITMAP
FFFFFFFFFFFFFFFF
8000000000000001
8000000000000001
8000000000000001
8000000000000001
8000007F00000001
800000FF1F000001
800000FFFFC00001
800000FFFFE00001
800381FFFFF00001
8003C3FFFFFC0001
8007C7FFFFFE0001
800FE7FFFFFF8001
801FE7FFFDFFC001
803FE7FFFDFFE001
803FE7FFFC3FF801
803FE7F9FC1FFC01
803FF7F8FC0F3E01
803FF7F87C000001
807FB7F03C000001
807F97F81C000001
80FF07F818000001
81FF07F408000001
81FE07E600000801
83FE07C30000FE01
873C07C18001FF01
803C07E0C007FF81
80380F20601FF001
80780F20603FE001
80780E3FC03FF001
8070183040FFF801
8060001860FFFC01
80C0000821FFFC01
8180000811FFFE01
8000000810FFFE01
8000000C11FFFE01
8000000410FFFE01
80000006087FFE01
83811082067BFE01
824110827A37FE01
82429987863DFC01
824299860468FC01
83C2968204487C01
8224568206487801
8227D08302D83801
8224508102F03801
83C4508103901801
800000010F301801
80000003F3201801
8383870102201801
8244488101E01001
8244488181600001
8244488081400001
83C4488081400001
8224488101400001
8224488178800001
822448818E800001
83C3870203800001
8000000000000001
8000000000000001
8000000000000001
8000000000000001
8000000000000001
FFFFFFFFFFFFFFFF
ENDCHAR
STARTCHAR H52
ENCODING 82
SWIDTH 64 0
DWIDTH 64 0
BBX 64 64 0 -64
BITMAP
FFFFFFFFFFFFFFFF
8000000000000001
8000000000000001
8000000000000001
8000000000000001
80071E1C44F9C001
8008912244212001
8008912244211001
8008912044211001
80089E207C211001
8008922044211001
8008912244211001
8008912244212001
8047111C44F9C001
80C0000000000001
80C0000000000001
80C0000000000001
80E0000000000001
8060000780002001
8070000C80003001
8060000840003001
8070001040003001
807000184000E001
803807084F00E001
803819C870C0C001
803810642020C001
801C6034C0338001
801C400C80138001
800E300880370001
800E180FC0660181
800F0FFCFDCE0701
800F00D0861E1E01
80070127811C3801
80078248411C7001
800784704139E001
8003C440213B8001
8013C240337F0001
8011E2403C7C0001
8019F3C030780301
8018F0C020D03E01
800CF84021F0FC01
800E7840C3D1F801
8007787187B3F001
80073C1F0F33E001
80031E701E778001
80031E7C3C770781
80038FF838701F01
8001CFF070707E01
8021C7F0E0E1F801
8038E7E1E0E3F001
801CF3E7C0E3F001
800E71E781C7C001
800F3DE383CF0001
80079EF3038F0001
8003CF7A079F0001
8001E7100F1E0001
8001F3C8081C0001
8000D00000000001
8000000000000001
8000000000000001
8000000000000001
8000000000000001
8000000000000001
FFFFFFFFFFFFFFFF
ENDCHAR
STARTCHAR H53
ENCODING 83
SWIDTH 64 0
DWIDTH 64 0
BBX 64 64 0 -64
BITMAP
FFFFFFFFFFFFFFFF
8000000000000001
8000000000000001
8000000000000001
8000000000000001
8000000000000001
8000000000000001
8000000000000001
8000000000000001
8000000000000001
8000000000000001
8000000000000001
8000000000000001
8200000000000001
8200000000000001
8300000000000001
83C0700000000001
87E1E00F80007C01
8FE1E007E0009E01
87E3E003F03B8E01
87E7E001F84C4F01
83E7F001F844CF01
81E7F000F845EF01
81E7E000FC6FAF01
8077C0003CDE2781
80678F003E8727C1
801219000EFDC1C1
800C708002304001
8006998000198001
80038FC3E01E0001
8000CC4610300001
8000FC4008300001
80009B9C18300001
80009B26F8300001
800073E184300001
8000162284480001
8000180DE4480001
80000021BFF40001
800000A10E1E0001
800003E711E10001
80000FDA3038C001
80000FE3E007B001
80000FF00002E801
80000FF000007601
80001FE000003E81
80003FC000001981
80007F0000000C01
8000000000000401
8000000000000001
8000000000000001
8000000000000001
83C408A100000001
822408A100000001
822408B300000001
822408B300000001
83C408AD00000001
820408AD00000001
820408A100000001
820408A100000001
8207C72100000001
8000000000000001
8000000000000001
8000000000000001
FFFFFFFFFFFFFFFF
ENDCHAR
STARTCHAR H54
ENCODING 84
SWIDTH 64 0
DWIDTH 64 0
BBX 64 64 0 -64
BITMAP
FFFFFFFFFFFFFFFF
8000000000000001
8000000000000001
8000000000000001
8000000000000001
8000000000000001
8000001C20000001
8000001FE0000001
8000009FF001C001
800003FFE003E001
800003FFFC0FE001
800001FFF7FFF001
8001FDFFF35FF001
80014BFF9B2FF001
800E45FFC92FE001
801A44FE49A7E001
801249FE4DE7FC01
8012497F2627FE01
8011C93F1B3DFE01
8019493E1945FE01
8038FA7D95DDFE01
80296C7E7295FE01
802D2E7E1EA77E01
80272BBE13A97F01
80112B7E12ED7F01
8033BD5FECF55E01
80346E5E0C654001
803FE67F0CA9C001
802C795F04FF8001
802CDD9F0C9A8001
802B8B1F178A8001
80289EAF319A8001
802976BFE0B58001
8029227FE0E7C001
8032623FD113E001
8012522F8D0FE001
800CD263C70FC001
800C92C3C1F7C001
800693038003C001
80039A0000004001
8388FE2238211001
8448912244219001
8448912240519001
8408911420515001
840F9E0818515381
8408920804893001
8448910844F93001
8448910844891001
8388910838891001
8000000000000001
80003E44FA122841
8000084482122841
8000084483322CC1
8000084483322CC1
8000087CF2D22B41
8000084482D22B41
8000084482122841
8000084482122841
80000844FA11C841
8000000000000001
8000000000000001
8000000000000001
8000000000000001
FFFFFFFFFFFFFFFF
ENDCHAR
STARTCHAR H55
ENCODING 85
SWIDTH 64 0
DWIDTH 64 0
BBX 64 64 0 -64
BITMAP
FFFFFFFFFFFFFFFF
8000000000000001
8000000000000001
8000000000000001
8000000000000001
8000000000000001
8000000000000001
8000000000000001
8000000000000001
8000000000000001
8000000000000001
8000000000000001
8000000000000001
8000000000000001
8000000000000001
8000000000000001
8000000000000001
8000000000000001
8000000000000001
8000000000000001
8000000000000001
8000000000000001
8000000000000001
8000000000000001
8000000000000001
8000000000000001
8000000000000001
8000000000000001
8000000000000001
8000000000000001
8000000000000001
8000000000000001
8000000000000001
8000000000000001
8000000000000001
8000000000000001
8000000000000001
8000000000000001
8000000000000001
8000000000000001
8000000000000001
8000000000000001
8000000000000001
8000000000000001
8000000000000001
8000000000000001
8000000000000001
8000000000000001
8000000000000001
8000000000000001
8000000000000001
8000000000000001
8000000000000001
8000000000000001
8000000000000001
8000000000000001
8000000000000001
8000000000000001
8000000000000001
8000000000000001
8000000000000001
8000000000000001
8000000000000001
FFFFFFFFFFFFFFFF
ENDCHAR
STARTCHAR H56
ENCODING 86
SWIDTH 64 0
DWIDTH 64 0
BBX 64 64 0 -64
BITMAP
FFFFFFFFFFFFFFFF
8000000000000001
8000000000000001
8000000000000001
8000000000000001
8000000000000001
8000000000000001
8000000000000001
8000000000000001
8000000000000001
8000000000000001
8000000000000001
8000000000000001
8000000000000001
8000000000000001
8000000000000001
8000000000000001
8000000000000001
8000000000000001
8000000000000001
8000000000000001
8000000000000001
8000000000000001
8000000000000001
8000000000000001
8000000000000001
8000000000000001
8000000000000001
8000000000000001
8000000000000001
8000000000000001
8000000000000001
8000000000000001
8000000000000001
8000000000000001
8000000000000001
8000000000000001
8000000000000001
8000000000000001
8000000000000001
8000000000000001
8000000000000001
8000000000000001
8000000000000001
8000000000000001
8000000000000001
8000000000000001
8000000000000001
8000000000000001
8000000000000001
8000000000000001
8000000000000001
8000000000000001
8000000000000001
8000000000000001
8000000000000001
8000000000000001
8000000000000001
8000000000000001
8000000000000001
8000000000000001
8000000000000001
8000000000000001
FFFFFFFFFFFFFFFF
ENDCHAR
STARTCHAR H57
ENCODING 87
SWIDTH 64 0
DWIDTH 64 0
BBX 64 64 0 -64
BITMAP
FFFFFFFFFFFFFFFF
8000000000000001
8000000000000001
8000000000000001
8000000000000001
8000000000000001
8000000000000001
8000000000000001
8000000000000001
8000000000000001
8000000000000001
8000000000000001
8000000000000001
8000000000000001
8000000000000001
8000000000000001
8000000000000001
8000000000000001
8000000000000001
8000000000000001
8000000000000001
8000000000000001
8000000000000001
8000000000000001
8000000000000001
8000000000000001
8000000000000001
8000000000000001
8000000000000001
8000000000000001
8000000000000001
8000000000000001
8000000000000001
8000000000000001
8000000000000001
8000000000000001
8000000000000001
8000000000000001
8000000000000001
8000000000000001
8000000000000001
8000000000000001
8000000000000001
8000000000000001
8000000000000001
8000000000000001
8000000000000001
8000000000000001
8000000000000001
8000000000000001
8000000000000001
8000000000000001
8000000000000001
8000000000000001
8000000000000001
8000000000000001
8000000000000001
8000000000000001
8000000000000001
8000000000000001
8000000000000001
8000000000000001
8000000000000001
FFFFFFFFFFFFFFFF
ENDCHAR
STARTCHAR H58
ENCODING 88
SWIDTH 64 0
DWIDTH 64 0
BBX 64 64 0 -64
BITMAP
FFFFFFFFFFFFFFFF
8000000000000001
8000000000000001
8000000000000001
8000000000000001
8000000000000001
8000000000000001
8000000000000001
8000000000000001
8000000000000001
8000000000000001
8000000000000001
8000000000000001
8000000000000001
8000000000000001
8000000000000001
8000000000000001
8000000000000001
8000000000000001
8000000000000001
8000000000000001
8000000000000001
8000000000000001
8000000000000001
8000000000000001
8000000000000001
8000000000000001
8000000000000001
8000000000000001
8000000000000001
8000000000000001
8000000000000001
8000000000000001
8000000000000001
8000000000000001
8000000000000001
8000000000000001
8000000000000001
8000000000000001
8000000000000001
8000000000000001
8000000000000001
8000000000000001
8000000000000001
8000000000000001
8000000000000001
8000000000000001
8000000000000001
8000000000000001
8000000000000001
8000000000000001
8000000000000001
8000000000000001
8000000000000001
8000000000000001
8000000000000001
8000000000000001
8000000000000001
8000000000000001
8000000000000001
8000000000000001
8000000000000001
8000000000000001
FFFFFFFFFFFFFFFF
ENDCHAR
STARTCHAR H59
ENCODING 89
SWIDTH 64 0
DWIDTH 64 0
BBX 64 64 0 -64
BITMAP
FFFFFFFFFFFFFFFF
8000000000000001
8000000000000001
8000000000000001
8000000000000001
8000000000000001
8000000000000001
8000000000000001
8000000000000001
8000000000000001
8000000000000001
8000000000000001
8000000000000001
8000000000000001
8000000000000001
8000000000000001
8000000000000001
8000000000000001
8000000000000001
8000000000000001
8000000000000001
8000000000000001
8000000000000001
8000000000000001
8000000000000001
8000000000000001
8000000000000001
8000000000000001
8000000000000001
8000000000000001
8000000000000001
8000000000000001
8000000000000001
8000000000000001
8000000000000001
8000000000000001
8000000000000001
8000000000000001
8000000000000001
8000000000000001
8000000000000001
8000000000000001
8000000000000001
8000000000000001
8000000000000001
8000000000000001
8000000000000001
8000000000000001
8000000000000001
8000000000000001
8000000000000001
8000000000000001
8000000000000001
8000000000000001
8000000000000001
8000000000000001
8000000000000001
8000000000000001
8000000000000001
8000000000000001
8000000000000001
8000000000000001
8000000000000001
FFFFFFFFFFFFFFFF
ENDCHAR
STARTCHAR H5a
ENCODING 90
SWIDTH 64 0
DWIDTH 64 0
BBX 64 64 0 -64
BITMAP
FFFFFFFFFFFFFFFF
8000000000000001
8000000000000001
8000000000000001
8000000000000001
8000000000000001
8000000000000001
8000000000000001
8000000000000001
800FC1F0E1C7F001
8004220860821001
8004220850820001
8004220850820001
8004220848820001
8004220848820001
800422084483E001
8004220844820001
8004220842820001
8004220842820001
8004220841820001
8004220841821001
800FC1F0E1C7F001
8000000000000001
8000000000000001
8000000000000001
8000000000000001
8000000000000001
8000000000000001
8000000000000001
8000000000000001
8000000000000001
FFFFFFFFFFFFFFFF
8000000000000001
8000000000000001
8000000000000001
8000000000000001
8000000000000001
8000000000000001
8000000000000001
8000000000000001
8000000000000001
8000000000000001
8000000000000001
8000000000000001
8000000000000001
8000000000000001
8000000000000001
8000000000000001
8000000000000001
8000000000000001
8000000000000001
8000000000000001
8000000000000001
8000000000000001
8000000000000001
8000000000000001
8000000000000001
8000000000000001
8000000000000001
8000000000000001
8000000000000001
8000000000000001
8000000000000001
FFFFFFFFFFFFFFFF
ENDCHAR
STARTCHAR H5b
ENCODING 91
SWIDTH 64 0
DWIDTH 64 0
BBX 64 64 0 -64
BITMAP
FFFFFFFFFFFFFFFF
8000000000000001
8000000000000001
8000000000000001
8000000000000001
8000000000000001
8000000000000001
8000000000000001
8000000000000001
800F1C3FC71C7001
8006081042082001
8005081042082001
8005081001144001
8004881001144001
8004881001144001
8004481E01144001
8004481000A28001
8004281000A28001
8004281000A28001
8004181040A28001
8004181040410001
800e3C3FC0410001
8000000000000001
8000000000000001
8000000000000001
8000000000000001
8000000000000001
8000000000000001
8000000000000001
8000000000000001
8000000000000001
FFFFFFFFFFFFFFFF
8000000000000001
8000000000000001
8000000000000001
8000000000000001
8000000000000001
8000000000000001
8000000000000001
8000000000000001
8000000000000001
8000000000000001
8000000000000001
8000000000000001
8000000000000001
8000000000000001
8000000000000001
8000000000000001
8000000000000001
8000000000000001
8000000000000001
8000000000000001
8000000000000001
8000000000000001
8000000000000001
8000000000000001
8000000000000001
8000000000000001
8000000000000001
8000000000000001
8000000000000001
8000000000000001
8000000000000001
FFFFFFFFFFFFFFFF
ENDCHAR
STARTCHAR H5c
ENCODING 92
SWIDTH 64 0
DWIDTH 64 0
BBX 64 64 0 -64
BITMAP
FFFFFFFFFFFFFFFF
8000000000000001
8000000000000001
8000000000000001
8000000000000001
8000000000000001
8000000000000001
8000000000000001
8007C1C70F87F001
8008208202049001
8008208202008001
8008208202008001
8008208202008001
8008208202008001
8008208202008001
8008208202008001
8008208202008001
8008208202008001
8008A08202008001
8008608202008001
8007E07C0F83E001
8000100000000001
8000000000000001
8000000000000001
8000000000000001
8000000000000001
8000000000000001
8000000000000001
8000000000000001
8000000000000001
8000000000000001
FFFFFFFFFFFFFFFF
8000000000000001
8000000000000001
8000000000000001
8000000000000001
8000000000000001
8000000000000001
8000000000000001
8000000000000001
8000000000000001
8000000000000001
8000000000000001
8000000000000001
8000000000000001
8000000000000001
8000000000000001
8000000000000001
8000000000000001
8000000000000001
8000000000000001
8000000000000001
8000000000000001
8000000000000001
8000000000000001
8000000000000001
8000000000000001
8000000000000001
8000000000000001
8000000000000001
8000000000000001
8000000000000001
8000000000000001
FFFFFFFFFFFFFFFF
ENDCHAR
STARTCHAR H5d
ENCODING 93
SWIDTH 64 0
DWIDTH 64 0
BBX 64 64 0 -64
BITMAP
FFFFFFFFFFFFFFFF
8000000000000001
8000000000000001
8000000000000001
8000000000000001
8000000000000001
8000000000000001
8000000000000001
8007C3E1C073F001
80082410C0611001
80082410A0A10001
80080410A0A10001
80080410A0A10001
8008041091210001
8007C7F09121E001
8000241091210001
800024108A210001
800024108A210001
800824108A210001
8008241084211001
8007C639C473F001
8000000000000001
8000000000000001
8000000000000001
8000000000000001
8000000000000001
8000000000000001
8000000000000001
8000000000000001
8000000000000001
8000000000000001
FFFFFFFFFFFFFFFF
8000000000000001
8000000000000001
8000000000000001
8000000000000001
8000000000000001
8000000000000001
8000000000000001
8000000000000001
8000000000000001
8000000000000001
8000000000000001
8000000000000001
8000000000000001
8000000000000001
8000000000000001
8000000000000001
8000000000000001
8000000000000001
8000000000000001
8000000000000001
8000000000000001
8000000000000001
8000000000000001
8000000000000001
8000000000000001
8000000000000001
8000000000000001
8000000000000001
8000000000000001
8000000000000001
8000000000000001
FFFFFFFFFFFFFFFF
ENDCHAR
STARTCHAR H5e
ENCODING 94
SWIDTH 64 0
DWIDTH 64 0
BBX 64 64 0 -64
BITMAP
FFFFFFFFFFFFFFFF
8000000000000001
8000000000000001
8000000000000001
8000000000000001
8000000000000001
8000000000000001
8000000000000001
8000000000000001
8000000000000001
8000000000000001
8000000000000001
8000000000000001
8000000000000001
8000000000000001
8000000000000001
8000000000000001
8000000000000001
8000000000000001
8000000000000001
8000000000000001
8000000000000001
8000000000000001
8000000000000001
8000000000000001
8000000000000001
8000000000000001
8000000000000001
8000000000000001
8000000000000001
8000000000000001
8000000000000001
8000000000000001
8000000000000001
8000000000000001
8000000000000001
8000000000000001
8000000000000001
8000000000000001
8000000000000001
8000000000000001
8000000000000001
8000000000000001
8000000000000001
8000000000000001
8000000000000001
8000000000000001
8000000000000001
8000000000000001
8000000000000001
8000000000000001
8000000000000001
8000000000000001
8000000000000001
8000000000000001
8000000000000001
8000000000000001
8000000000000001
8000000000000001
8000000000000001
8000000000000001
8000000000000001
8000000000000001
FFFFFFFFFFFFFFFF
ENDCHAR
STARTCHAR H5f
ENCODING 95
SWIDTH 64 0
DWIDTH 64 0
BBX 64 64 0 -64
BITMAP
FFFFFFFFFFFFFFFF
8000000000000001
8000000000000001
8000000000000001
8000000000000001
8000000000000001
8000000000000001
8000000000000001
8000000000000001
8000000000000001
8000000000000001
8000000000000001
8000000000000001
8000000000000001
8000000000000001
8000000000000001
8000000000000001
8000000000000001
8000000000000001
8000000000000001
8000000000000001
8000000000000001
8000000000000001
8000000000000001
8000000000000001
8000000000000001
8000000000000001
8000000000000001
8000000000000001
8000000000000001
8000000000000001
8000000000000001
8000000000000001
8000000000000001
8000000000000001
8000000000000001
8000000000000001
8000000000000001
8000000000000001
8000000000000001
8000000000000001
8000000000000001
8000000000000001
8000000000000001
8000000000000001
8000000000000001
8000000000000001
8000000000000001
8000000000000001
8000000000000001
8000000000000001
8000000000000001
8000000000000001
8000000000000001
8000000000000001
8000000000000001
8000000000000001
8000000000000001
8000000000000001
8000000000000001
8000000000000001
8000000000000001
8000000000000001
FFFFFFFFFFFFFFFF
ENDCHAR
STARTCHAR H60
ENCODING 96
SWIDTH 64 0
DWIDTH 64 0
BBX 64 64 0 -64
BITMAP
FFFFFFFFFFFFFFFF
8000000000000001
8000000000000001
8000000000000001
8000000000000001
8000000000000001
8000000000000001
8000000000000001
8000000000000001
8000000000000001
8000000000000001
8000000000000001
8000000000000001
8000000000000001
8000000000000001
8000000000000001
8000000000000001
8000000000000001
8000000000000001
8000000000000001
8000000000000001
8000000000000001
8000000000000001
8000000000000001
8000000000000001
8000000000000001
8000000000000001
8000000000000001
8000000000000001
8000000000000001
8000000000000001
8000000000000001
8000000000000001
8000000000000001
8000000000000001
8000000000000001
8000000000000001
8000000000000001
8000000000000001
8000000000000001
8000000000000001
8000000000000001
8000000000000001
8000000000000001
8000000000000001
8000000000000001
8000000000000001
8000000000000001
8000000000000001
8000000000000001
8000000000000001
8000000000000001
8000000000000001
8000000000000001
8000000000000001
8000000000000001
8000000000000001
8000000000000001
8000000000000001
8000000000000001
8000000000000001
8000000000000001
8000000000000001
FFFFFFFFFFFFFFFF
ENDCHAR
STARTCHAR H61
ENCODING 97
SWIDTH 64 0
DWIDTH 64 0
BBX 64 64 0 -64
BITMAP
FFFFFFFFFFFFFFFF
8000000000000001
8000000000000001
8000000000000001
8000000000000001
8000000000001001
800000000000D001
8000000000037001
8000000000046001
8000000068044001
80000000B8044001
8000000110048001
8000000120078001
8000000160078001
8000000160030001
80000001E0060001
80000000C0040001
8000000080080001
8000000000100001
8000000103D00101
8000000106200301
8000003E04400201
8000002604C07401
8000006405C0D801
8000004407809001
8000004803819001
800000700300A001
800000700401E001
800000700403C001
8000002010020001
8000004020060001
8000030040080001
80000D8701880001
8000090C86F00001
800013118C800001
8000161108C00001
80001E160A000001
8000041C0E000001
8000081C0C000001
8000101810000001
8000006040000001
8000208180000001
8000410000000001
8000820600000001
8001841800000001
8003102000000001
8000108000000001
8000000000000001
8000000000000001
803C7C7C7E663C01
8066666618666601
8060666618766201
8030666618766001
800C7C7C187E6E01
8006606C186E6601
80666066186E6601
8066606618666601
803C60667E663A01
8000000000000001
8000000000000001
8000000000000001
8000000000000001
8000000000000001
FFFFFFFFFFFFFFFF
ENDCHAR
STARTCHAR H62
ENCODING 98
SWIDTH 64 0
DWIDTH 64 0
BBX 64 64 0 -64
BITMAP
FFFFFFFFFFFFFFFF
8000000000000001
8000000000000001
8000000000000001
8000000000000001
80000003C1000001
8000600E3F000001
8000300802000001
8000280806000001
80002E080C000001
8000410C081E0001
8000C08000210001
800080800040E001
8001000FE0001801
800100701C000C01
800180800203F001
8000C10001060001
8080620000840001
80C0040000440001
804008000020E001
8030100000119001
802F900000121001
8020900000100801
8020A00000080801
8020200000081001
8020200000081801
8020200000080801
802020000009EC01
8020200000092201
8032200000081E01
801F900000100001
8000100000100001
8000100000100001
8000080000238001
8000240000404001
8010620000804001
801CC10001004001
801300800200C001
800800701C718001
8008010FE0090001
8004020000098001
8007F2081004C001
80001E181803E001
8000002004000001
8000002008000001
8000007F38000001
800000E0C0000001
8000000000000001
8000000000000001
803C66C6C67E7C01
806666C6C6606601
806066EEEE606601
803066EEEE606601
800C66FEFE7C7C01
800666D6D6606C01
806666D6D6606601
806666C6C6606601
803C3CC6C67E6601
8000000000000001
8000000000000001
8000000000000001
8000000000000001
8000000000000001
FFFFFFFFFFFFFFFF
ENDCHAR
STARTCHAR H63
ENCODING 99
SWIDTH 64 0
DWIDTH 64 0
BBX 64 64 0 -64
BITMAP
FFFFFFFFFFFFFFFF
8000000000000001
8000000000000001
8000000000000001
8000000000000001
8000000000000001
8000000000000001
8000000000000001
8000000000000001
8000000000000001
8000000000000001
8000001E00000001
800F807B00000001
8000F183FF800001
80003E0007800001
800031C003000001
8000103000E00001
8000100C00BE0001
80000801001F8001
8000080080330001
8000080050300001
8000080010200001
800010000C100001
80001000001E0001
800030380101A001
8000202800C03801
8000204400035C01
800030440426C001
80003C440F120001
8000268609030001
8000028208848001
800002820C426001
80000282E441F801
80000382B4618001
800000830E30C001
800000000A1FC001
800000000618C001
8000000000003001
8000000000001801
8000000000000801
8000000000000001
8000000000000001
8000000000000001
8000000000000001
8000000000000001
8000000000000001
8000000000000001
8000000000000001
8000000000000001
8010667E66C66601
8038661866C66601
8038661866EE7601
806C661866EE7601
806C661866FE7E01
80C6661866D66E01
80FE661866D66E01
80C6661866C66601
80C63C183CC66601
8000000000000001
8000000000000001
8000000000000001
8000000000000001
8000000000000001
FFFFFFFFFFFFFFFF
ENDCHAR
STARTCHAR H64
ENCODING 100
SWIDTH 64 0
DWIDTH 64 0
BBX 64 64 0 -64
BITMAP
FFFFFFFFFFFFFFFF
8000000000000001
8000000000000001
8000000000000001
8000000000000001
8000000380000001
8000000380000001
8000000380000001
8000000100000001
8000000100000001
8001C00100070001
8001C04104070001
8001C04104070001
8000202108080001
8000102108100001
8000081FE8200001
8000043118400001
8000025114800001
8000018FD3000001
8000019933020001
800062652C8C0001
80001C652C700001
8000069552C00001
800009CBE7200001
80000937D9200001
8070090FE1201C01
807FFFFFFFFFFC01
8070090FE1201C01
80000977DD200001
8000098BA3A00001
80000E9552600001
800034654C5C0001
8000C2692C830001
8000019933000001
8000018FE3000001
8000025114800001
8000043118400001
8000082FE8200001
8000102108100001
8000204104080001
8001C04104070001
8001C00100070001
8001C00100070001
8000000100000001
8000000100000001
8000000100000001
8000000380000001
8000000380000001
8000000380000001
8000000000000001
8186FCCCFCFCF801
818630CC30C0CC01
81B630EC30C0CC01
80B430EC30C0CC01
80FC30FC30F8F801
80FC30DC30C0D801
80CC30DC30C0CC01
804830CC30C0CC01
8048FCCC30FCCC01
8000000000000001
8000000000000001
8000000000000001
8000000000000001
FFFFFFFFFFFFFFFF
ENDCHAR
STARTCHAR H65
ENCODING 101
SWIDTH 64 0
DWIDTH 64 0
BBX 64 64 0 -64
BITMAP
FFFFFFFFFFFFFFFF
8000000000000001
8000000000000001
8000000000000001
8000000000000001
8000000000000001
8000000000000001
8000000000000001
8000000000000001
8000000000000001
8000000000000001
8000000000000001
8000000000000001
8000000000000001
8000000000000001
8000000000000001
8000000000000001
8000000000000001
8000000000000001
8000000000000001
8000000000000001
8000000000000001
8000000000000001
8000000000000001
8000000000000001
8000000000000001
8000000000000001
8000000000000001
8000000000000001
8000000000000001
8000000000000001
8000000000000001
8000000000000001
8000000000000001
8000000000000001
8000000000000001
8000000000000001
8000000000000001
8000000000000001
8000000000000001
8000000000000001
8000000000000001
8000000000000001
8000000000000001
8000000000000001
8000000000000001
8000000000000001
8000000000000001
8000000000000001
8000000000000001
8000000000000001
8000000000000001
8000000000000001
8000000000000001
8000000000000001
8000000000000001
8000000000000001
8000000000000001
8000000000000001
8000000000000001
8000000000000001
8000000000000001
8000000000000001
FFFFFFFFFFFFFFFF
ENDCHAR
STARTCHAR H66
ENCODING 102
SWIDTH 64 0
DWIDTH 64 0
BBX 64 64 0 -64
BITMAP
0000000000000000
0000000000000000
00000003C0000000
00000003C0000000
00000003C0000000
00000007E0000000
00000007E0000000
00000007E0000000
00000007E0000000
0000000E70000000
0000000E70000000
0000000E70000000
0000000E70000000
0000001C38000000
0000001C38000000
0000001C38000000
0000001C38000000
000000381C000000
000000381C000000
000000381C000000
000000381C000000
000000381C000000
000000700E000000
000000700E000000
000000700E000000
000000700E000000
000000E007000000
000000E007000000
000000E007000000
000000E007000000
000001C003800000
000001C003800000
000001C003800000
000001C003800000
0000038001C00000
0000038001C00000
0000038001C00000
0000038001C00000
0000038001C00000
0000070000E00000
0000070000E00000
0000070000E00000
0000070000E00000
00000E0000700000
00000E0000700000
00000E0000700000
00000E0000700000
00001C0000380000
00001C0000380000
00001C0000380000
00001C0000380000
00003800001C0000
00003800001C0000
00003800001C0000
00003800001C0000
00007000000E0000
00007000000E0000
00007000000E0000
00007000000E0000
00007000000E0000
0000E00000070000
0000E00000070000
0000E00000070000
0000E00000070000
ENDCHAR
STARTCHAR H67
ENCODING 103
SWIDTH 64 0
DWIDTH 64 0
BBX 64 64 0 -64
BITMAP
0000000000000000
0000000000000000
0000003FFC000000
000001FFFF800000
00000FFFFFF00000
00003F8001FC0000
00007C00003E0000
0001F000000F8000
0003E0000007C000
000780000001E000
000F00000000F000
001E000000007800
003C000000003C00
0038000000001C00
0078000000001E00
00F0000000000F00
00E0000000000700
01E0000000000780
01C0000000000380
01C0000000000380
03C00000000003C0
03800000000001C0
03800000000001C0
03800000000001E0
03800000000000E0
07800000000000E0
07000000000000E0
07000000000000E0
07000000000000E0
07000000000000E0
07000000000000E0
07000000000000E0
07000000000000E0
07000000000000E0
07000000000000E0
0700000000000000
0700000000000000
0700000000000000
0700000000000000
0700000000000000
0700000000000000
0700000000000000
0700000000000000
0700000000000000
0700000000000000
0700000000000000
0700000000000000
0700000000000000
0700000000000000
0700000000000000
0700000000000000
0700000000000000
0700000000000000
0700000000000000
0700000000000000
0700000000000000
07000001FFFFFFE0
07000001FFFFFFE0
07000001FFFFFFE0
07000000000000E0
07000000000000E0
07000000000000E0
07000000000000E0
07000000000000E0
ENDCHAR
STARTCHAR H68
ENCODING 104
SWIDTH 64 0
DWIDTH 64 0
BBX 64 64 0 -64
BITMAP
0000000000000000
0000000000000000
07FF00000000FFE0
07FF00000000FFE0
03FE000000007FC0
01FC000000003F80
00F8000000001F00
0070000000000E00
0070000000000E00
0070000000000E00
0070000000000E00
0070000000000E00
0070000000000E00
0070000000000E00
0070000000000E00
0070000000000E00
0070000000000E00
0070000000000E00
0070000000000E00
0070000000000E00
0070000000000E00
0070000000000E00
0070000000000E00
0070000000000E00
0070000000000E00
0070000000000E00
0070000000000E00
0070000000000E00
0070000000000E00
0070000000000E00
0070000000000E00
0070000000000E00
0070000000000E00
0070000000000E00
0070000000000E00
0070000000000E00
0070000000000E00
0070000000000E00
0070000000000E00
0070000000000E00
0070000000000E00
0070000000000E00
0070000000000E00
0070000000000E00
0070000000000E00
0070000000000E00
0070000000000E00
0070000000000E00
007FFFFFFFFFFE00
007FFFFFFFFFFE00
007FFFFFFFFFFE00
007FFFFFFFFFFE00
0070000000000E00
0070000000000E00
0070000000000E00
0070000000000E00
0070000000000E00
0070000000000E00
0070000000000E00
0070000000000E00
0070000000000E00
0070000000000E00
0070000000000E00
0070000000000E00
ENDCHAR
STARTCHAR H69
ENCODING 105
SWIDTH 64 0
DWIDTH 64 0
BBX 64 64 0 -64
BITMAP
0000000000000000
0000000000000000
00000000FFFFFFE0
00000000FFFFFFE0
00000000FFFFFFE0
00000000000000E0
00000000000000E0
00000000000000E0
00000000000000E0
00000000000000E0
00000000000000E0
00000000000000E0
00000000000000E0
00000000000000E0
00000000000000E0
00000000000000E0
00000000000000E0
00000000000000E0
00000000000000E0
00000000000000E0
00000000000000E0
00000000000000E0
00000000000000E0
00000000000000E0
00000000000000E0
00000000000000E0
00000000000000E0
00000000000000E0
00000000000000E0
00000000000000E0
00000000000000E0
00000000000000E0
00000000000000E0
00000000000000E0
00000000000000E0
00000000000000E0
00000000000000E0
00000000000000E0
00000000000000E0
00000000000000E0
00000000000000E0
00000000000000E0
00000000000000E0
00000000000000E0
00000000000000E0
00000000000000E0
00000000000000E0
00000000000000E0
00000000000000E0
00000000000000E0
00000000000000E0
00000000000000E0
00000000000000E0
00000000000000E0
00000000000000E0
00000000000000E0
00000000000000E0
00000000000000E0
00000000000000E0
00000000000000E0
00000000000000E0
00000000000000E0
00000000000000E0
00000000000000E0
ENDCHAR
STARTCHAR H6a
ENCODING 106
SWIDTH 64 0
DWIDTH 64 0
BBX 64 64 0 -64
BITMAP
0000000000000000
0000000000000000
07FF00000000FFE0
07FF00000000FFE0
03FE000000007FC0
01FC000000003F80
00F8000000001F00
0070000000000E00
0070000000000E00
0078000000001E00
0078000000001E00
007C000000003E00
007C000000003E00
007E000000007E00
007E000000007E00
007700000000EE00
007700000000EE00
007380000001CE00
007380000001CE00
0071C00000038E00
0071C00000038E00
0070E00000070E00
0070E00000070E00
00707000000E0E00
00707000000E0E00
00703800001C0E00
00703800001C0E00
00701C0000380E00
00701C0000380E00
00700E0000700E00
0070060000600E00
0070070000E00E00
0070030000C00E00
0070038001C00E00
0070018001800E00
007001C003800E00
007000C003000E00
007000E007000E00
0070006006000E00
007000700E000E00
007000300C000E00
007000381C000E00
0070001818000E00
0070001C38000E00
0070000C30000E00
0070000E70000E00
0070000660000E00
00700007E0000E00
00700003C0000E00
0070000180000E00
0070000000000E00
0070000000000E00
0070000000000E00
0070000000000E00
0070000000000E00
0070000000000E00
0070000000000E00
0070000000000E00
0070000000000E00
0070000000000E00
0070000000000E00
0070000000000E00
0070000000000E00
0070000000000E00
ENDCHAR
STARTCHAR H6b
ENCODING 107
SWIDTH 64 0
DWIDTH 64 0
BBX 64 64 0 -64
BITMAP
0000000000000000
0000000000000000
07FF00000000FFE0
07FF00000000FFE0
03FE000000007FC0
01FC000000003F80
00F8000000001F00
0070000000000E00
0078000000000E00
0078000000000E00
007C000000000E00
007C000000000E00
007E000000000E00
007E000000000E00
0077000000000E00
0077000000000E00
0073800000000E00
0073800000000E00
0071C00000000E00
0071C00000000E00
0070E00000000E00
0070E00000000E00
0070700000000E00
0070700000000E00
0070380000000E00
0070380000000E00
00701C0000000E00
00701C0000000E00
00700E0000000E00
00700E0000000E00
0070070000000E00
0070070000000E00
0070038000000E00
0070038000000E00
007001C000000E00
007001C000000E00
007000E000000E00
007000E000000E00
0070007000000E00
0070007000000E00
0070003800000E00
0070003800000E00
0070001C00000E00
0070001C00000E00
0070000E00000E00
0070000E00000E00
0070000700000E00
0070000700000E00
0070000380000E00
00700001C0000E00
00700001C0000E00
00700000E0000E00
00700000E0000E00
0070000070000E00
0070000070000E00
0070000038000E00
0070000038000E00
007000001C000E00
007000001C000E00
007000000E000E00
007000000E000E00
0070000007000E00
0070000007000E00
0070000003800E00
ENDCHAR
STARTCHAR H6c
ENCODING 108
SWIDTH 64 0
DWIDTH 64 0
BBX 64 64 0 -64
BITMAP
0000000000000000
0000000000000000
0000003FFC000000
000001FFFF800000
00000FFFFFF00000
00003F8001FC0000
00007C00003E0000
0001F000000F8000
0003E0000007C000
000780000001E000
000F00000000F000
001E000000007800
003C000000003C00
0038000000001C00
0078000000001E00
00F0000000000F00
00E0000000000700
01E0000000000780
01C0000000000380
01C0000000000380
03C00000000003C0
03800000000001C0
03800000000001C0
03800000000001C0
03800000000001C0
07800000000001E0
07000000000000E0
07000000000000E0
07000000000000E0
07000000000000E0
07000000000000E0
07000000000000E0
07000000000000E0
07000000000000E0
07000000000000E0
07000000000000E0
07000000000000E0
07000000000000E0
07000000000000E0
07000000000000E0
07000000000000E0
07000000000000E0
07000000000000E0
07000000000000E0
07000000000000E0
07000000000000E0
07000000000000E0
07000000000000E0
07000000000000E0
07000000000000E0
07000000000000E0
07000000000000E0
07000000000000E0
07000000000000E0
07000000000000E0
07000000000000E0
07000000000000E0
07000000000000E0
07000000000000E0
07000000000000E0
07000000000000E0
07000000000000E0
07000000000000E0
07000000000000E0
ENDCHAR
STARTCHAR H6d
ENCODING 109
SWIDTH 64 0
DWIDTH 64 0
BBX 64 64 0 -64
BITMAP
0000000000000000
0000000000000000
07FF00000000FFE0
07FF00000000FFE0
03FE000000007FC0
01FC000000003F80
00F8000000001F00
0070000000000E00
0070000000000E00
0038000000001C00
0038000000001C00
001C000000003800
001C000000003800
000E000000007000
000E000000007000
000700000000E000
000700000000E000
000380000001C000
000380000001C000
0001C00000038000
0001C00000038000
0000E00000070000
0000E00000070000
00007000000E0000
00007000000E0000
00003800001C0000
00003800001C0000
00001C0000380000
00001C0000380000
00000E0000700000
0000070000E00000
0000070000E00000
0000038001C00000
0000038001C00000
000001C003800000
000001C003800000
000000E007000000
000000E007000000
000000700E000000
000000700E000000
000000381C000000
000000381C000000
0000001C38000000
0000001C38000000
0000000E70000000
0000000E70000000
00000007E0000000
00000007E0000000
00000003C0000000
00000003C0000000
00000003C0000000
00000007E0000000
00000007E0000000
0000000E70000000
0000000E70000000
0000001C38000000
0000001C38000000
000000381C000000
000000381C000000
000000700E000000
000000700E000000
000000E007000000
000000E007000000
000001C003800000
ENDCHAR
STARTCHAR H6e
ENCODING 110
SWIDTH 64 0
DWIDTH 64 0
BBX 64 64 0 -64
BITMAP
FFFFFFFFFFFFFFFF
8000000000000001
8000000000000001
8000000000000001
8000000000000001
8000000000000001
8000000000000001
8000000000000001
8000000000000001
8000000000000001
8000000000000001
8000000000000001
8000000000000001
8000000000000001
8000000000000001
8000000000000001
8000000000000001
8000000000000001
8000000000000001
8000000000000001
8000000000000001
8000000000000001
8000000000000001
8000000000000001
8000000000000001
8000000000000001
8000000000000001
8000000000000001
8000000000000001
8000000000000001
8000000000000001
8000000000000001
8000000000000001
8000000000000001
8000000000000001
8000000000000001
8000000000000001
8000000000000001
8000000000000001
8000000000000001
8000000000000001
8000000000000001
8000000000000001
8000000000000001
8000000000000001
8000000000000001
8000000000000001
8000000000000001
8000000000000001
8000000000000001
8000000000000001
8000000000000001
8000000000000001
8000000000000001
8000000000000001
8000000000000001
8000000000000001
8000000000000001
8000000000000001
8000000000000001
8000000000000001
8000000000000001
8000000000000001
FFFFFFFFFFFFFFFF
ENDCHAR
STARTCHAR H6f
ENCODING 111
SWIDTH 64 0
DWIDTH 64 0
BBX 64 64 0 -64
BITMAP
FFFFFFFFFFFFFFFF
8000000000000001
8000000000000001
8000000000000001
8000000000000001
8000000000000001
8000000000000001
8000000000000001
8000000000000001
8000000000000001
8000000000000001
8000000000000001
8000000000000001
8000000000000001
8000000000000001
8000000000000001
8000000000000001
8000000000000001
8000000000000001
8000000000000001
8000000000000001
8000000000000001
8000000000000001
8000000000000001
8000000000000001
8000000000000001
8000000000000001
8000000000000001
8000000000000001
8000000000000001
8000000000000001
8000000000000001
8000000000000001
8000000000000001
8000000000000001
8000000000000001
8000000000000001
8000000000000001
8000000000000001
8000000000000001
8000000000000001
8000000000000001
8000000000000001
8000000000000001
8000000000000001
8000000000000001
8000000000000001
8000000000000001
8000000000000001
8000000000000001
8000000000000001
8000000000000001
8000000000000001
8000000000000001
8000000000000001
8000000000000001
8000000000000001
8000000000000001
8000000000000001
8000000000000001
8000000000000001
8000000000000001
8000000000000001
FFFFFFFFFFFFFFFF
ENDCHAR
STARTCHAR H70
ENCODING 112
SWIDTH 64 0
DWIDTH 64 0
BBX 64 64 0 -64
BITMAP
FFFFFFFFFFFFFFFF
8000000000000001
8000000000000001
8000000000000001
8000000000000001
8000000000000001
8000000000000001
8000000000000001
8000000000000001
8000000000000001
8000000000000001
8000000000000001
8000000000000001
8000000000000001
8000000000000001
8000000000000001
8000000000000001
8000000000000001
8000000000000001
8000000000000001
8000000000000001
8000000000000001
8000000000000001
8000000000000001
8000000000000001
8000000000000001
8000000000000001
8000000000000001
8000000000000001
8000000000000001
8000000000000001
8000000000000001
8000000000000001
8000000000000001
8000000000000001
8000000000000001
8000000000000001
8000000000000001
8000000000000001
8000000000000001
8000000000000001
8000000000000001
8000000000000001
8000000000000001
8000000000000001
8000000000000001
8000000000000001
8000000000000001
8000000000000001
8000000000000001
8000000000000001
8000000000000001
8000000000000001
8000000000000001
8000000000000001
8000000000000001
8000000000000001
8000000000000001
8000000000000001
8000000000000001
8000000000000001
8000000000000001
8000000000000001
FFFFFFFFFFFFFFFF
ENDCHAR
STARTCHAR H71
ENCODING 113
SWIDTH 64 0
DWIDTH 64 0
BBX 64 64 0 -64
BITMAP
FFFFFFFFFFFFFFFF
8000000000000001
8000000000000001
8000000000000001
8000000000000001
8000000000001FC1
8000000000001801
8000000000001801
8000000000001801
8000000000001F81
80000007E0001801
80000003FF801801
80000003F8C01801
80001E01F8E01801
80001F01F8781801
80007F81F87C0001
800007C1F87E0001
800007E1F8FF0001
800007E1F8F90001
80000FE1F1E00001
80000FE1FFE00001
8001FFC3DF800001
8000FF838F000001
80007F033F800001
80003F0673C00001
80003E04C1E00001
80007C0000F00001
8000783000780001
8000F8F9033E0001
8000F1FB879F0001
8001E7FBFF9FC001
8003EFF9FF8FF001
8003DFF1EF07FC01
800790E1C703FF01
800701E1C701FFC1
800E07F1C700FFE1
801C3FF1C7F87FF9
8030FFC7C7FC3FF1
80600F8781F80001
80000FF300600001
80001FF000000001
80007C700FC00001
80006070FFE00001
80000071FFF00001
8000007B8F800001
8000007E0F000001
8000C0FFFF000001
800071F1FF800001
80003FE07FE00001
80001FE077F00001
80000FE0E3F80001
800007E3C0FC0001
800003C7007C0001
8000038C00380001
8000000000000001
8000000000000001
8000000000000001
8000000000000001
8000000000000001
8000000000000001
8000000000000001
8000000000000001
8000000000000001
FFFFFFFFFFFFFFFF
ENDCHAR
STARTCHAR H72
ENCODING 114
SWIDTH 64 0
DWIDTH 64 0
BBX 64 64 0 -64
BITMAP
FFFFFFFFFFFFFFFF
8000000000000001
8000000000000001
8000000000000001
8000000000000001
8000000000000F81
80000000000018C1
80000000000018C1
8000000180001801
8000000380001801
80000007C0001801
8000000FE0001801
8000001FF00018C1
80000007E00018C1
8000000380000F81
8000000380000001
8000000380000001
8000000380000001
8001F8039FC00001
8003FE03FFF00001
8003FFFFC1F80001
8003FFFF807E0001
8003F803803E0001
8003F803801F0001
8001F803800F8001
8001F8038007C001
8000F8038007C001
8000F8038007C001
80007C038007C001
80003C03801FC001
80001E3FE01FC001
80000FFFF03EC001
800007C3BFFC0001
8000030387F80001
8000000380780001
8000000380380001
8000000380000001
8000000380000001
8000000300000001
8000000300000001
8000000300000001
8000000300000001
8000000300000001
8000000300000001
8000000300000001
8000000300000001
8000000300000001
8000000300000001
8000000300000001
8000000200000001
8000000200000001
8000000600000001
8000000400000001
8000000000000001
8000000000000001
8000000000000001
8000000000000001
8000000000000001
8000000000000001
8000000000000001
8000000000000001
8000000000000001
8000000000000001
FFFFFFFFFFFFFFFF
ENDCHAR
STARTCHAR H73
ENCODING 115
SWIDTH 64 0
DWIDTH 64 0
BBX 64 64 0 -64
BITMAP
FFFFFFFFFFFFFFFF
8000000000000001
8000000000000001
8000000000000001
8000000000000001
87FFFFFFFFFFFFC1
8480000000000241
8480000000000241
87FFFFFFFFFFFFC1
8488000000002241
8490000000001241
84A0000000000A41
84C0000000000641
8480000000000241
8480000000000241
8480000000000241
8480000000000241
8480000000000241
8480000000000241
8480000000000241
8480000000000241
8480000000000241
8480000000000241
8480000000000241
8480000000000241
8480000000000241
8480000F80000241
8480000CC0000241
8480000CC0000241
8480000CC0000241
8480000F80000241
8480000CC0000241
8480000C60000241
8480000C60000241
8480000C60000241
8480000FC0000241
8480000000000241
8480000000000241
8480000000000241
8480000000000241
8480000000000241
8480000000000241
8480000000000241
8480000000000241
8480000000000241
8480000000000241
8480000000000241
8480000000000241
8480000000000241
8480000000000241
8480000000000241
84C0000000000641
84A0000000000A41
8490000000001241
8488000000002241
87FFFFFFFFFFFFC1
8480000000000241
8480000000000241
87FFFFFFFFFFFFC1
8000000000000001
8000000000000001
8000000000000001
8000000000000001
FFFFFFFFFFFFFFFF
ENDCHAR
STARTCHAR H74
ENCODING 116
SWIDTH 64 0
DWIDTH 64 0
BBX 64 64 0 -64
BITMAP
FFFFFFFFFFFFFFFF
8000000000000001
8000000000000001
8000000000000001
8000000000000001
8000000000000001
8000000000000001
8000000000000001
8000000000000001
8000000000000001
8000000000000001
8000000000000001
8000000000000001
8000000000000001
8000000000000001
8000000000000001
8000000000000001
8000000000000001
8000000000000001
8000000000000001
8000000000000001
8000000000000001
8000000000000001
8000000000000001
8000000000000001
8000000000000001
8000000000000001
8000000000000001
8000000000000001
8000000000000001
8000000000000001
8000000000000001
8000000000000001
8000000000000001
8000000000000001
8000000000000001
8000000000000001
8000000000000001
8000000000000001
8000000000000001
8000000000000001
8000000000000001
8000000000000001
8000000000000001
8000000000000001
8000000000000001
8000000000000001
8000000000000001
8000000000000001
8000000000000001
8000000000000001
8000000000000001
8000000000000001
8000000000000001
8000000000000001
8000000000000001
8000000000000001
8000000000000001
8000000000000001
8000000000000001
8000000000000001
8000000000000001
8000000000000001
FFFFFFFFFFFFFFFF
ENDCHAR
STARTCHAR H75
ENCODING 117
SWIDTH 64 0
DWIDTH 64 0
BBX 64 64 0 -64
BITMAP
FFFFFFFFFFFFFFFF
8000000000000001
8000000000000001
8000000000000001
8000000000000001
8000000000000001
8000000000000001
8000000000000001
8000000000000001
8000000000000001
8000000000000001
8000000000000001
8000000000000001
8000000000000001
8000000000000001
8000000000000001
8000000000000001
8000000000000001
8000000000000001
8000000000000001
8000000000000001
8000000000000001
8000000000000001
8000000000000001
8000000000000001
8000000000000001
8000000000000001
8000000000000001
8000000000000001
8000000000000001
8000000000000001
8000000000000001
8000000000000001
8000000000000001
8000000000000001
8000000000000001
8000000000000001
8000000000000001
8000000000000001
8000000000000001
8000000000000001
8000000000000001
8000000000000001
8000000000000001
8000000000000001
8000000000000001
8000000000000001
8000000000000001
8000000000000001
8000000000000001
8000000000000001
8000000000000001
8000000000000001
8000000000000001
8000000000000001
8000000000000001
8000000000000001
8000000000000001
8000000000000001
8000000000000001
8000000000000001
8000000000000001
8000000000000001
FFFFFFFFFFFFFFFF
ENDCHAR
STARTCHAR H76
ENCODING 118
SWIDTH 64 0
DWIDTH 64 0
BBX 64 64 0 -64
BITMAP
0001FFFFFFFF8000
0001FFFFFFFF8000
0001FFFFFFFF8000
0001FFFFFFFF8000
000380000001C000
000380000001C000
000380000001C000
000380000001C000
000700000000E000
000700000000E000
000700000000E000
000700000000E000
000700000000E000
000E000000007000
000E000000007000
000E000000007000
000E000000007000
001C000000003800
001C000000003800
001C000000003800
001C000000003800
0038000000001C00
0038000000001C00
0038000000001C00
0038000000001C00
0070000000000E00
0070000000000E00
0070000000000E00
00F8000000001F00
01FC000000003F80
03FE000000007FC0
07FF00000000FFE0
07FF00000000FFE0
0000000000000000
0000000000000000
0000000000000000
0000000000000000
0000000000000000
0000000000000000
0000000000000000
0000000000000000
0000000000000000
0000000000000000
0000000000000000
0000000000000000
0000000000000000
0000000000000000
0000000000000000
0000000000000000
0000000000000000
0000000000000000
0000000000000000
0000000000000000
0000000000000000
0000000000000000
0000000000000000
0000000000000000
0000000000000000
0000000000000000
0000000000000000
0000000000000000
0000000000000000
0000000000000000
0000000000000000
ENDCHAR
STARTCHAR H77
ENCODING 119
SWIDTH 64 0
DWIDTH 64 0
BBX 64 64 0 -64
BITMAP
07000000000000E0
07000000000000E0
07000000000000E0
07000000000000E0
07000000000000E0
07000000000000E0
07000000000000E0
07000000000000E0
07800000000000E0
07800000000000E0
03800000000000E0
03800000000001E0
03800000000001C0
03800000000001C0
03C00000000003C0
01C0000000000380
01C0000000000380
01E0000000000780
00E0000000000700
00F0000000000F00
0078000000001E00
0038000000001C00
003C000000003C00
001E000000007800
000F00000000F000
000780000001E000
0003E0000007C000
0001F000000F8000
00007C00003E0000
00003F8001FC0000
00000FFFFFF00000
000001FFFF800000
0000003FFC000000
0000000000000000
0000000000000000
0000000000000000
0000000000000000
0000000000000000
0000000000000000
0000000000000000
0000000000000000
0000000000000000
0000000000000000
0000000000000000
0000000000000000
0000000000000000
0000000000000000
0000000000000000
0000000000000000
0000000000000000
0000000000000000
0000000000000000
0000000000000000
0000000000000000
0000000000000000
0000000000000000
0000000000000000
0000000000000000
0000000000000000
0000000000000000
0000000000000000
0000000000000000
0000000000000000
0000000000000000
ENDCHAR
STARTCHAR H78
ENCODING 120
SWIDTH 64 0
DWIDTH 64 0
BBX 64 64 0 -64
BITMAP
0070000000000E00
0070000000000E00
0070000000000E00
0070000000000E00
0070000000000E00
0070000000000E00
0070000000000E00
0070000000000E00
0070000000000E00
0070000000000E00
0070000000000E00
0070000000000E00
0070000000000E00
0070000000000E00
0070000000000E00
0070000000000E00
0070000000000E00
0070000000000E00
0070000000000E00
0070000000000E00
0070000000000E00
0070000000000E00
0070000000000E00
0070000000000E00
0070000000000E00
0070000000000E00
0070000000000E00
0070000000000E00
00F8000000001F00
01FC000000003F80
03FE000000007FC0
07FF00000000FFE0
07FF00000000FFE0
0000000000000000
0000000000000000
0000000000000000
0000000000000000
0000000000000000
0000000000000000
0000000000000000
0000000000000000
0000000000000000
0000000000000000
0000000000000000
0000000000000000
0000000000000000
0000000000000000
0000000000000000
0000000000000000
0000000000000000
0000000000000000
0000000000000000
0000000000000000
0000000000000000
0000000000000000
0000000000000000
0000000000000000
0000000000000000
0000000000000000
0000000000000000
0000000000000000
0000000000000000
0000000000000000
0000000000000000
ENDCHAR
STARTCHAR H79
ENCODING 121
SWIDTH 64 0
DWIDTH 64 0
BBX 64 64 0 -64
BITMAP
00000000000000E0
00000000000000E0
00000000000000E0
00000000000000E0
00000000000000E0
00000000000000E0
00000000000000E0
00000000000000E0
00000000000000E0
03000000000000E0
03000000000000E0
03000000000000E0
03000000000000C0
03000000000000C0
03800000000001C0
0180000000000180
0180000000000180
01C0000000000380
00C0000000000300
00E0000000000700
0070000000000E00
0030000000000C00
0038000000001C00
001C000000003800
000E000000007000
000700000000E000
0003C0000003C000
0001E00000078000
00007800001E0000
00003F0000FC0000
00000FE007F00000
000001FFFF800000
0000003FFC000000
0000000000000000
0000000000000000
0000000000000000
0000000000000000
0000000000000000
0000000000000000
0000000000000000
0000000000000000
0000000000000000
0000000000000000
0000000000000000
0000000000000000
0000000000000000
0000000000000000
0000000000000000
0000000000000000
0000000000000000
0000000000000000
0000000000000000
0000000000000000
0000000000000000
0000000000000000
0000000000000000
0000000000000000
0000000000000000
0000000000000000
0000000000000000
0000000000000000
0000000000000000
0000000000000000
0000000000000000
ENDCHAR
STARTCHAR H7a
ENCODING 122
SWIDTH 64 0
DWIDTH 64 0
BBX 64 64 0 -64
BITMAP
0070000000000E00
0070000000000E00
0070000000000E00
0070000000000E00
0070000000000E00
0070000000000E00
0070000000000E00
0070000000000E00
0070000000000E00
0070000000000E00
0070000000000E00
0070000000000E00
0070000000000E00
0070000000000E00
0070000000000E00
0070000000000E00
0070000000000E00
0070000000000E00
0070000000000E00
0070000000000E00
0070000000000E00
0070000000000E00
0070000000000E00
0070000000000E00
0070000000000E00
0070000000000E00
0070000000000E00
0070000000000E00
00F8000000001F00
01FC000000003F80
03FE000000007FC0
07FF00000000FFE0
07FF00000000FFE0
0000000000000000
0000000000000000
0000000000000000
0000000000000000
0000000000000000
0000000000000000
0000000000000000
0000000000000000
0000000000000000
0000000000000000
0000000000000000
0000000000000000
0000000000000000
0000000000000000
0000000000000000
0000000000000000
0000000000000000
0000000000000000
0000000000000000
0000000000000000
0000000000000000
0000000000000000
0000000000000000
0000000000000000
0000000000000000
0000000000000000
0000000000000000
0000000000000000
0000000000000000
0000000000000000
0000000000000000
ENDCHAR
STARTCHAR H7b
ENCODING 123
SWIDTH 64 0
DWIDTH 64 0
BBX 64 64 0 -64
BITMAP
0070000003800E00
0070000001C00E00
0070000001C00E00
0070000000E00E00
0070000000E00E00
0070000000700E00
0070000000700E00
0070000000380E00
0070000000380E00
00700000001C0E00
00700000001C0E00
00700000000E0E00
00700000000E0E00
0070000000070E00
0070000000070E00
0070000000038E00
0070000000038E00
007000000001CE00
007000000001CE00
007000000000EE00
007000000000EE00
0070000000007E00
0070000000007E00
0070000000003E00
0070000000003E00
0070000000001E00
0070000000001E00
0070000000000E00
00F8000000001F00
01FC000000003F80
03FE000000007FC0
07FF00000000FFE0
07FF00000000FFE0
0000000000000000
0000000000000000
0000000000000000
0000000000000000
0000000000000000
0000000000000000
0000000000000000
0000000000000000
0000000000000000
0000000000000000
0000000000000000
0000000000000000
0000000000000000
0000000000000000
0000000000000000
0000000000000000
0000000000000000
0000000000000000
0000000000000000
0000000000000000
0000000000000000
0000000000000000
0000000000000000
0000000000000000
0000000000000000
0000000000000000
0000000000000000
0000000000000000
0000000000000000
0000000000000000
0000000000000000
ENDCHAR
STARTCHAR H7c
ENCODING 124
SWIDTH 64 0
DWIDTH 64 0
BBX 64 64 0 -64
BITMAP
07000000000000E0
07000000000000E0
07000000000000E0
07000000000000E0
07000000000000E0
07000000000000E0
07000000000000E0
07000000000000E0
07000000000000E0
07800000000001E0
03800000000001C0
03800000000001C0
03800000000001C0
03800000000001C0
03C00000000003C0
01C0000000000380
01C0000000000380
01E0000000000780
00E0000000000700
00F0000000000F00
0078000000001E00
0038000000001C00
003C000000003C00
001E000000007800
000F00000000F000
000780000001E000
0003E0000007C000
0001F000000F8000
00007C00003E0000
00003F8001FC0000
00000FFFFFF00000
000001FFFF800000
0000003FFC000000
0000000000000000
0000000000000000
0000000000000000
0000000000000000
0000000000000000
0000000000000000
0000000000000000
0000000000000000
0000000000000000
0000000000000000
0000000000000000
0000000000000000
0000000000000000
0000000000000000
0000000000000000
0000000000000000
0000000000000000
0000000000000000
0000000000000000
0000000000000000
0000000000000000
0000000000000000
0000000000000000
0000000000000000
0000000000000000
0000000000000000
0000000000000000
0000000000000000
0000000000000000
0000000000000000
0000000000000000
ENDCHAR
STARTCHAR H7d
ENCODING 125
SWIDTH 64 0
DWIDTH 64 0
BBX 64 64 0 -64
BITMAP
000001C003800000
0000038001C00000
0000038001C00000
0000070000E00000
0000070000E00000
00000E0000700000
00001C0000380000
00001C0000380000
00003800001C0000
00003800001C0000
00007000000E0000
00007000000E0000
0000E00000070000
0000E00000070000
0001C00000038000
0001C00000038000
000380000001C000
000380000001C000
000700000000E000
000700000000E000
000E000000007000
000E000000007000
001C000000003800
001C000000003800
0038000000001C00
0038000000001C00
0070000000000E00
0070000000000E00
00F8000000001F00
01FC000000003F80
03FE000000007FC0
07FF00000000FFE0
07FF00000000FFE0
0000000000000000
0000000000000000
0000000000000000
0000000000000000
0000000000000000
0000000000000000
0000000000000000
0000000000000000
0000000000000000
0000000000000000
0000000000000000
0000000000000000
0000000000000000
0000000000000000
0000000000000000
0000000000000000
0000000000000000
0000000000000000
0000000000000000
0000000000000000
0000000000000000
0000000000000000
0000000000000000
0000000000000000
0000000000000000
0000000000000000
0000000000000000
0000000000000000
0000000000000000
0000000000000000
0000000000000000
ENDCHAR
STARTCHAR H7e
ENCODING 126
SWIDTH 64 0
DWIDTH 64 0
BBX 64 64 0 -64
BITMAP
FFFFFFFFFFFFFFFF
8000000000000001
8000000000000001
8000000000000001
8000000000000001
8000000000000001
8000000000000001
8000000000000001
8000000000000001
8000000000000001
8000000000000001
8000000000000001
8000000000000001
8000000000000001
8000000000000001
8000000000000001
8000000000000001
8000000000000001
8000000000000001
8000000000000001
8000000000000001
8000000000000001
8000000000000001
8000000000000001
8000000000000001
8000000000000001
8000000000000001
8000000000000001
8000000000000001
8000000000000001
8000000000000001
8000000000000001
8000000000000001
8000000000000001
8000000000000001
8000000000000001
8000000000000001
8000000000000001
8000000000000001
8000000000000001
8000000000000001
8000000000000001
8000000000000001
8000000000000001
8000000000000001
8000000000000001
8000000000000001
8000000000000001
8000000000000001
8000000000000001
8000000000000001
8000000000000001
8000000000000001
8000000000000001
8000000000000001
8000000000000001
8000000000000001
8000000000000001
8000000000000001
8000000000000001
8000000000000001
8000000000000001
8000000000000001
FFFFFFFFFFFFFFFF
ENDCHAR
STARTCHAR H7f
ENCODING 127
SWIDTH 64 0
DWIDTH 64 0
BBX 64 64 0 -64
BITMAP
0000000000000000
0000000000000000
0000000000000000
0000000000000000
0000000000000000
0000000000000000
0000000000000000
0000000000000000
0000000000000000
0000000000000000
0000000000000000
0000000000000000
0000000000000000
0000000000000000
0000000000000000
0000000000000000
0000000000000000
0000000000000000
0000000000000000
0000000000000000
0000000000000000
0000000000000000
0000000000000000
0000000000000000
0000000000000000
0000000000000000
0000000000000000
0000000000000000
0000000000000000
0000000000000000
0000000000000000
0000000000000000
0000000000000000
0000000000000000
0000000000000000
0000000000000000
0000000000000000
0000000000000000
0000000000000000
0000000000000000
0000000000000000
0000000000000000
0000000000000000
0000000000000000
0000000000000000
0000000000000000
0000000000000000
0000000000000000
0000000000000000
0000000000000000
0000000000000000
0000000000000000
0000000000000000
0000000000000000
0000000000000000
0000000000000000
0000000000000000
0000000000000000
0000000000000000
0000000000000000
0000000000000000
0000000000000000
0000000000000000
0000000000000000
ENDCHAR
ENDFONT
